<?xml version="1.0" encoding="UTF-8"?>
<svg version="1.1" xmlns="http://www.w3.org/2000/svg" width="844" height="844">
<path d="M0 0 C278.52 0 557.04 0 844 0 C844 278.52 844 557.04 844 844 C565.48 844 286.96 844 0 844 C0 565.48 0 286.96 0 0 Z " fill="#FEFEFE" transform="translate(0,0)"/>
<path d="M0 0 C278.52 0 557.04 0 844 0 C844 278.52 844 557.04 844 844 C565.48 844 286.96 844 0 844 C0 565.48 0 286.96 0 0 Z M346 21 C344.27870859 21.31284551 342.55735634 21.62535644 340.8359375 21.9375 C271.22228734 34.87985198 202.92607125 68.2468172 150.8359375 116.41015625 C148.72086792 118.34168673 146.5848591 120.21275163 144.41015625 122.07421875 C139.27297875 126.5571445 134.45530435 131.35864275 129.63696289 136.17773438 C128.07391266 137.73860327 126.50302635 139.29127888 124.93164062 140.84375 C118.50197262 147.23797156 112.64100661 153.88764846 107 161 C106.10124031 162.07421833 105.1975034 163.14432871 104.28515625 164.20703125 C98.05628358 171.50871503 92.43878236 179.09995852 87 187 C86.54399414 187.65677734 86.08798828 188.31355469 85.61816406 188.99023438 C62.24741692 222.7711496 40.37760306 262.19996551 30.8984375 302.4609375 C30.23697272 305.06653355 29.52384901 307.6009426 28.7265625 310.1640625 C20.75883254 336.0260873 16.21180708 363.0608809 14 390 C13.9071875 391.09248047 13.814375 392.18496094 13.71875 393.31054688 C13.02282068 402.12399461 12.75754745 410.91053028 12.75 419.75 C12.74932526 420.47521851 12.74865051 421.20043701 12.74795532 421.94763184 C12.85192896 493.60975869 32.4589034 565.3548196 69 627 C69.60086426 628.02432129 69.60086426 628.02432129 70.21386719 629.06933594 C77.16195597 640.87949449 84.79302025 652.03186736 93 663 C93.44730469 663.60183105 93.89460938 664.20366211 94.35546875 664.82373047 C111.51583269 687.85161885 131.72564056 711.30405385 154.40234375 728.96875 C156.92096906 730.93820137 159.34672863 732.98356794 161.77001953 735.06762695 C174.73999048 746.20888897 188.69375213 755.67009379 203 765 C203.60424805 765.39574219 204.20849609 765.79148437 204.83105469 766.19921875 C241.79972895 790.2461321 283.01150834 806.52553508 325.56591797 817.37451172 C327.27103123 817.81267623 328.97297201 818.26328733 330.67236328 818.72314453 C339.11547321 820.94997728 347.62853415 822.32958789 356.25 823.625 C357.66934612 823.843261 359.08861746 824.06200883 360.5078125 824.28125 C402.28232692 830.70342302 446.39022849 830.1635403 488 823 C489.00337402 822.83064941 490.00674805 822.66129883 491.04052734 822.48681641 C506.86068228 819.80414273 522.18626306 816.44809377 537.37109375 811.20703125 C540.78831319 810.07041036 544.20777104 809.11135786 547.6875 808.1875 C557.07968362 805.56024139 566.00846063 801.74491045 575 798 C576.00691895 797.58548584 576.00691895 797.58548584 577.03417969 797.16259766 C585.91256036 793.50474203 594.45225237 789.35859818 603 785 C604.13598633 784.43962036 604.13598633 784.43962036 605.29492188 783.86791992 C621.61184168 775.81295336 637.0668476 766.37806012 652 756 C652.6511377 755.54850586 653.30227539 755.09701172 653.97314453 754.63183594 C661.53899135 749.36307558 668.9030568 743.89057154 676 738 C676.49322754 737.59168945 676.98645508 737.18337891 677.49462891 736.76269531 C689.22030908 727.03157101 700.33762581 716.75621971 711.15093994 706.02429199 C712.15816232 705.02511139 713.16686031 704.02741559 714.17718506 703.03137207 C720.15661944 697.12752569 725.77556508 691.06699022 730.99560547 684.47192383 C733.0473068 681.94165879 735.2089891 679.56252825 737.4375 677.1875 C742.35822156 671.77300361 746.50272448 665.90264597 750.66113281 659.90380859 C752.00447333 657.99363913 753.38280147 656.11423667 754.7734375 654.23828125 C763.91698756 641.79543225 771.53900541 628.50380807 779 615 C779.32395752 614.41473541 779.64791504 613.82947083 779.98168945 613.22647095 C785.15744567 603.83511474 789.7479875 594.27915468 794 584.4375 C794.30059326 583.74512238 794.60118652 583.05274475 794.91088867 582.33938599 C802.91374473 563.87180613 809.50573082 545.46767938 814.27783203 525.89453125 C814.98928898 523.04293099 815.75026245 520.20935108 816.52734375 517.375 C828.63292708 472.54135418 831.43109311 424.07574101 826 378 C825.87109375 376.90107422 825.7421875 375.80214844 825.609375 374.66992188 C822.81667535 351.72065396 818.23225318 329.27608732 811.29296875 307.21875 C810.24068597 303.85973897 809.38334243 300.50160708 808.625 297.0625 C803.29398611 274.99458204 792.58441475 253.01247054 782 233 C781.59555664 232.23365234 781.19111328 231.46730469 780.77441406 230.67773438 C771.46589639 213.1533467 761.16555236 196.46869012 749.21240234 180.62548828 C747.4496515 178.26213848 745.76282094 175.84599585 744.0625 173.4375 C737.06529862 163.80200957 728.96812677 154.95948702 720.9375 146.18359375 C719.59865441 144.67469317 718.30913211 143.12109347 717.0625 141.53515625 C713.11716387 136.68568059 708.47059801 132.53176121 703.875 128.3125 C703.30950439 127.79212158 702.74400879 127.27174316 702.16137695 126.7355957 C700.44248221 125.15534868 698.72170329 123.57718623 697 122 C696.49033691 121.53303711 695.98067383 121.06607422 695.45556641 120.58496094 C692.31490789 117.71081421 689.15941 114.85349887 686 112 C685.37351562 111.42121094 684.74703125 110.84242187 684.1015625 110.24609375 C665.12120916 93.04773865 642.52646528 78.08244611 620 66 C619.11441406 65.52385254 618.22882812 65.04770508 617.31640625 64.55712891 C596.45793229 53.40107563 575.41713519 43.59882584 553 36 C552.10313477 35.69465332 551.20626953 35.38930664 550.28222656 35.07470703 C529.37956198 28.02560895 508.2046875 22.81146799 486.41503906 19.38183594 C484.40698982 19.06434817 482.40222125 18.7261941 480.3984375 18.3828125 C436.78729522 11.34875729 389.27371541 12.77784067 346 21 Z " fill="#FEFEFE" transform="translate(0,0)"/>
<path d="M0 0 C2.0747082 0.42953851 4.14265497 0.7788302 6.23779297 1.09179688 C32.37297629 5.01191476 57.82432248 14.41606063 82.17919922 24.45117188 C83.69513672 25.04671875 83.69513672 25.04671875 85.24169922 25.65429688 C91.49539705 28.14912314 97.42552707 31.08148558 103.33154297 34.30053711 C107.23642889 36.42772965 111.17185544 38.45564946 115.16796875 40.40600586 C135.63253589 50.40477774 154.48277353 63.31311683 172.51220703 77.17041016 C173.95604596 78.27972167 175.40684682 79.37996066 176.85888672 80.47851562 C181.41761053 83.95671148 185.73573931 87.64023584 189.99169922 91.48242188 C192.05079533 93.33560837 194.14079696 95.145709 196.24169922 96.95117188 C199.7841972 100.03497988 203.07277705 103.32453218 206.36669922 106.66992188 C208.50917169 108.77545516 210.81642653 110.59926896 213.17919922 112.45117188 C218.15648351 117.15194037 222.64615259 122.32741662 227.17919922 127.45117188 C227.93910156 128.30775391 227.93910156 128.30775391 228.71435547 129.18164062 C235.46019788 136.8052553 241.98409289 144.4928963 247.94677734 152.75488281 C249.33680032 154.66809193 250.74994658 156.56315463 252.16357422 158.45898438 C262.63113172 172.59613899 271.9068124 187.41457657 280.49169922 202.76367188 C280.85158936 203.40691406 281.21147949 204.05015625 281.58227539 204.71289062 C288.22416384 216.81024246 294.13693035 229.21893796 299.48950195 241.93334961 C300.36949844 244.02031038 301.26114938 246.10202268 302.15380859 248.18359375 C307.20388679 260.05041482 311.48524792 271.9907101 314.47705078 284.56005859 C315.19484637 287.51559942 315.99718932 290.43556113 316.82763672 293.36132812 C326.65956845 328.22179101 331.42005867 363.69408788 331.36669922 399.88867188 C331.36576263 400.71910004 331.36482605 401.5495282 331.36386108 402.40512085 C331.28140268 436.35564195 326.94475957 469.54458854 318.02587891 502.30712891 C317.23266231 505.25264314 316.48336538 508.20524215 315.74951172 511.16601562 C307.10499259 545.45553218 291.49848722 579.26337272 273.17919922 609.45117188 C272.66228516 610.30904297 272.14537109 611.16691406 271.61279297 612.05078125 C266.02561152 621.27173108 260.17325565 630.11079025 253.46435547 638.55273438 C251.33451356 641.25417489 249.34337843 644.01177683 247.36669922 646.82617188 C242.11301525 654.10294786 236.13680671 660.75095204 230.17919922 667.45117188 C229.36322266 668.38058594 228.54724609 669.31 227.70654297 670.26757812 C221.75352304 676.91753697 215.4912714 683.26673673 209.20550537 689.60009766 C208.20546841 690.60817266 207.20691654 691.61772359 206.21002197 692.62890625 C199.54901269 699.37520122 192.60152166 705.55027467 185.17919922 711.45117188 C184.11700302 712.33856313 183.05862809 713.23059043 182.00732422 714.13085938 C158.51799792 734.13237662 131.9618419 751.10579766 104.17919922 764.45117188 C102.90084982 765.09109395 101.62354258 765.7331012 100.34716797 766.37695312 C53.02271933 790.0790416 -2.49292341 806.35300735 -55.82080078 806.45117188 C-57.25293723 806.46263478 -58.68506594 806.47508877 -60.1171875 806.48828125 C-87.37523707 806.72775802 -113.85874552 806.3776012 -140.82568359 801.94335938 C-143.37159414 801.52498999 -145.91920141 801.12455986 -148.46923828 800.73242188 C-164.76600765 798.1412876 -180.94213817 794.05000137 -196.51220703 788.59960938 C-199.80135416 787.45792194 -203.10878826 786.44314944 -206.44580078 785.45117188 C-247.12565045 773.01433598 -286.02405792 751.00864668 -319.82080078 725.45117188 C-320.81595703 724.70996094 -321.81111328 723.96875 -322.83642578 723.20507812 C-331.51252737 716.68642056 -339.71049425 709.65644851 -347.82080078 702.45117188 C-348.5877124 701.77401123 -349.35462402 701.09685059 -350.14477539 700.39916992 C-356.30052228 694.92130772 -362.19578581 689.22799322 -368.00830078 683.38867188 C-368.8584375 682.54240234 -369.70857422 681.69613281 -370.58447266 680.82421875 C-375.53900503 675.86203459 -380.26993954 670.78433712 -384.82080078 665.45117188 C-385.68962891 664.46375 -386.55845703 663.47632813 -387.45361328 662.45898438 C-394.55393745 654.24575674 -400.92773814 645.61674763 -407.18896484 636.75195312 C-408.78935129 634.49551359 -410.40778699 632.25319319 -412.03173828 630.01367188 C-417.81896545 621.99440902 -423.09979266 613.94236619 -427.83349609 605.24755859 C-428.88983419 603.32556658 -429.97318606 601.42078346 -431.06298828 599.51757812 C-431.64270386 598.50159546 -431.64270386 598.50159546 -432.23413086 597.46508789 C-432.95882239 596.19506867 -433.68501659 594.92590461 -434.41333008 593.65795898 C-474.72401901 522.40917241 -490.83247263 436.61345349 -469.82080078 294.45117188 C-468.63179261 290.35185404 -467.3518998 286.29146413 -465.99658203 282.24414062 C-465.02108965 279.09728648 -464.23650019 276.0030138 -463.48876953 272.79882812 C-461.85550469 266.16720523 -459.4495607 259.99443238 -456.82080078 253.70117188 C-456.33949707 252.53666504 -455.85819336 251.3721582 -455.36230469 250.17236328 C-440.23372393 213.88245279 -421.90448341 180.57539275 -397.82080078 149.45117188 C-397.13630859 148.56300781 -396.45181641 147.67484375 -395.74658203 146.75976562 C-393.80722002 144.29185632 -391.82399408 141.86754685 -389.82080078 139.45117188 C-389.00740234 138.45214844 -388.19400391 137.453125 -387.35595703 136.42382812 C-379.95072045 127.50889878 -371.86650067 119.28181768 -363.69580078 111.07617188 C-363.14321594 110.51841064 -362.5906311 109.96064941 -362.02130127 109.38598633 C-355.67489997 102.99279064 -349.25573502 96.94200864 -342.18334961 91.34838867 C-339.91279558 89.52504721 -337.76720608 87.6189729 -335.63330078 85.63867188 C-326.11394441 77.0780996 -315.40430014 69.62916242 -304.82080078 62.45117188 C-304.16321777 62.00241699 -303.50563477 61.55366211 -302.828125 61.09130859 C-300.51748403 59.51732041 -298.20113222 57.95204942 -295.88330078 56.38867188 C-295.15578613 55.89367187 -294.42827148 55.39867187 -293.67871094 54.88867188 C-287.91682454 51.02778555 -281.94551165 47.69897358 -275.82080078 44.45117188 C-274.89243408 43.95174072 -273.96406738 43.45230957 -273.00756836 42.93774414 C-234.05466107 22.03854365 -191.77957518 5.39473486 -147.83105469 -1.23388672 C-145.73097812 -1.56290041 -143.64237884 -1.93666015 -141.55126953 -2.31835938 C-96.19027122 -10.40401929 -45.04019804 -9.89133168 0 0 Z M-90.72851562 15.47314453 C-108.26909733 15.63928586 -125.11962256 17.86227151 -142.35546875 20.85205078 C-145.27998896 21.35767094 -148.20619131 21.84061897 -151.13720703 22.30664062 C-158.78329837 23.54443681 -166.15717283 25.25066105 -173.57470703 27.49023438 C-176.55952917 28.37382793 -179.54018326 29.11944351 -182.57080078 29.82617188 C-197.03739687 33.40454948 -210.89040529 38.89949019 -224.64550781 44.56103516 C-226.4986575 45.31934983 -228.36009949 46.05734806 -230.22314453 46.79101562 C-237.19182516 49.56913394 -243.71641055 52.96051608 -250.29345703 56.54492188 C-253.12401321 58.08626169 -255.98411523 59.54204392 -258.88330078 60.95117188 C-270.78456359 66.86252518 -281.90365386 73.90290939 -292.82080078 81.45117188 C-293.41393066 81.86125488 -294.00706055 82.27133789 -294.61816406 82.69384766 C-307.09934874 91.37176767 -319.03592084 100.56044724 -330.14111328 110.95117188 C-334.30671935 114.83745159 -338.60385161 118.56839519 -342.94580078 122.25585938 C-346.66339083 125.44041261 -349.83950517 128.54464659 -352.82080078 132.45117188 C-354.93960767 134.62724381 -357.08089928 136.76564633 -359.30908203 138.83007812 C-363.81589798 143.12177159 -367.60916908 147.8445078 -371.38574219 152.77319336 C-374.31821764 156.58960227 -377.37157608 160.2658728 -380.50048828 163.92382812 C-386.44223218 170.96719339 -391.55413721 178.52322208 -396.63330078 186.20117188 C-397.11158325 186.9208313 -397.58986572 187.64049072 -398.0826416 188.38195801 C-406.4594488 201.01728367 -414.0567927 213.87006681 -420.82080078 227.45117188 C-421.28405762 228.37349609 -421.74731445 229.29582031 -422.22460938 230.24609375 C-423.58583454 232.97332871 -424.92794284 235.7087585 -426.25830078 238.45117188 C-426.82436035 239.61471191 -426.82436035 239.61471191 -427.40185547 240.80175781 C-444.55413476 277.15729753 -453.97968945 316.76684821 -458.82080078 356.45117188 C-458.95502441 357.52270508 -459.08924805 358.59423828 -459.22753906 359.69824219 C-465.39260458 410.94372345 -460.13182897 465.5258693 -443.82080078 514.45117188 C-443.49853516 515.43972168 -443.17626953 516.42827148 -442.84423828 517.44677734 C-430.89002507 553.99581235 -414.02600956 588.06735306 -391.82080078 619.45117188 C-391.13115234 620.42828125 -390.44150391 621.40539062 -389.73095703 622.41210938 C-382.37280484 632.67439934 -374.65834352 642.69398977 -366.08642578 651.97460938 C-364.83798301 653.33928648 -363.5974296 654.71188625 -362.39404297 656.11645508 C-357.53489573 661.78715243 -352.34889368 667.10924281 -347.0703125 672.38696289 C-345.58186841 673.87758803 -344.10162801 675.37604205 -342.62158203 676.875 C-336.34958666 683.18393728 -329.80979051 688.93106153 -322.82080078 694.45117188 C-321.53142232 695.49996705 -320.24346612 696.55051538 -318.95751953 697.60351562 C-310.79626494 704.21431669 -302.4663022 710.48834339 -293.82080078 716.45117188 C-293.2389502 716.8554541 -292.65709961 717.25973633 -292.05761719 717.67626953 C-266.4333656 735.41289141 -238.76191484 749.09613368 -209.82080078 760.45117188 C-208.75474609 760.88300781 -207.68869141 761.31484375 -206.59033203 761.75976562 C-198.6707077 764.91777731 -190.64544837 767.48492141 -182.43017578 769.73583984 C-180.60785565 770.23540927 -178.78769225 770.74288351 -176.96923828 771.25634766 C-155.560112 777.24857594 -133.84356091 780.61540388 -111.82080078 783.45117188 C-111.10934906 783.5455101 -110.39789734 783.63984833 -109.66488647 783.73704529 C-103.7539122 784.46627246 -97.8979442 784.64274344 -91.94580078 784.68945312 C-90.91545212 784.69915634 -89.88510345 784.70885956 -88.8235321 784.71885681 C-85.48924841 784.74376415 -82.15516825 784.75638814 -78.82080078 784.76367188 C-77.68164215 784.76629028 -76.54248352 784.76890869 -75.36880493 784.77160645 C-56.19799861 784.77632114 -37.72629825 783.58373683 -18.82080078 780.45117188 C-17.7940625 780.29100586 -16.76732422 780.13083984 -15.70947266 779.96582031 C-9.37181373 778.97279391 -3.0925525 777.79788866 3.17919922 776.45117188 C4.50201904 776.17031738 4.50201904 776.17031738 5.8515625 775.88378906 C31.71289128 770.24752301 58.24378266 761.83196732 82.17919922 750.45117188 C83.14905762 749.99162109 84.11891602 749.53207031 85.11816406 749.05859375 C104.29750279 739.88624852 122.86602566 729.82397936 140.17919922 717.45117188 C141.4198322 716.57581399 142.66069128 715.7007764 143.90185547 714.82617188 C150.4488739 710.17996223 156.89637314 705.45202425 163.17919922 700.45117188 C163.94232422 699.86207031 164.70544922 699.27296875 165.49169922 698.66601562 C171.67092785 693.84344456 177.40317809 688.63360876 183.12451172 683.28710938 C186.15002605 680.46317157 189.24805817 677.73339436 192.39794922 675.04882812 C196.69560831 671.19412951 200.60629058 666.96430933 204.49169922 662.70117188 C205.21172119 661.91238647 205.21172119 661.91238647 205.94628906 661.10766602 C207.35923872 659.55728732 208.76968385 658.00467276 210.17919922 656.45117188 C210.89720703 655.66097656 211.61521484 654.87078125 212.35498047 654.05664062 C226.84617213 637.93918296 239.51458814 620.48028253 251.07617188 602.16943359 C252.44741071 600.03336035 253.90411676 597.96295102 255.36669922 595.88867188 C258.72618305 590.86853411 261.29732495 585.44422159 263.92919922 580.02148438 C265.44936274 576.89595243 267.03661841 573.81874514 268.67919922 570.75585938 C281.87554125 545.8424113 290.87492552 518.61701942 298.17919922 491.45117188 C298.43789795 490.51362061 298.69659668 489.57606934 298.96313477 488.61010742 C301.18895829 480.21207029 302.51934434 471.72639754 303.74169922 463.13867188 C303.84936615 462.3857486 303.95703308 461.63282532 304.06796265 460.85708618 C304.79744261 455.72513064 305.49535988 450.58938351 306.17919922 445.45117188 C306.38706055 443.92169922 306.38706055 443.92169922 306.59912109 442.36132812 C308.43138585 428.26220614 308.37970004 414.08245323 308.42919922 399.88867188 C308.43464752 398.94398041 308.44009583 397.99928894 308.44570923 397.02597046 C308.52485089 378.57474394 307.23545427 360.35772504 304.24169922 342.13867188 C303.97740112 340.49427124 303.97740112 340.49427124 303.70776367 338.81665039 C303.35894004 336.65845301 303.00682298 334.50078447 302.65087891 332.34375 C302.24689382 329.86630936 301.86666517 327.38738394 301.49951172 324.90429688 C298.30734671 304.09924323 291.29840891 284.02809048 284.19873047 264.28759766 C283.30566494 261.80301067 282.42774529 259.31375649 281.55419922 256.82226562 C278.16028924 247.29077077 273.87366631 238.39027292 269.17919922 229.45117188 C268.44741884 228.04362475 267.71564813 226.63607261 266.98388672 225.22851562 C264.74931624 220.95109094 262.47115777 216.69806533 260.17919922 212.45117188 C259.81713379 211.77554199 259.45506836 211.09991211 259.08203125 210.40380859 C253.77916554 200.54881997 247.87045104 191.30201447 241.39697266 182.17578125 C240.35445859 180.699374 239.33123246 179.20937955 238.31201172 177.71679688 C229.81562525 165.27711142 220.0832707 153.78028962 210.17919922 142.45117188 C209.40060547 141.55914062 208.62201172 140.66710937 207.81982422 139.74804688 C201.85322894 132.97394246 195.43688774 126.75919889 188.86669922 120.57617188 C188.14546875 119.89425781 187.42423828 119.21234375 186.68115234 118.50976562 C179.89278083 112.11712877 172.97086918 105.93757727 165.61669922 100.20117188 C165.02300537 99.73718994 164.42931152 99.27320801 163.81762695 98.79516602 C152.28841609 89.83470982 140.46687068 81.34188174 128.17919922 73.45117188 C127.10412109 72.75894531 126.02904297 72.06671875 124.92138672 71.35351562 C106.43739254 59.88143107 86.70833599 49.81620036 66.31054688 42.25683594 C64.26268096 41.48272855 62.24159767 40.66356012 60.22216797 39.81835938 C51.04692156 35.98089862 41.75674309 33.0735138 32.17919922 30.45117188 C30.90947266 30.10183594 29.63974609 29.7525 28.33154297 29.39257812 C25.27604967 28.56685596 22.21623951 27.76191771 19.1526947 26.96678162 C17.30964092 26.48525202 15.46951385 25.99255898 13.62963867 25.49902344 C3.14631671 22.76046672 -7.35690947 20.85233159 -18.07080078 19.26367188 C-18.93975983 19.13321472 -19.80871887 19.00275757 -20.70401001 18.86834717 C-36.1070435 16.58178463 -51.23629083 15.48177474 -66.82080078 15.45117188 C-68.64244066 15.42696404 -70.46405835 15.40100471 -72.28564453 15.37304688 C-76.56558628 15.32208563 -80.84045847 15.34276051 -85.12011719 15.40966797 C-86.98948233 15.43839623 -88.85898312 15.45901708 -90.72851562 15.47314453 Z " fill="#192D48" transform="translate(496.82080078125,21.548828125)"/>
<path d="M0 0 C1.00737213 0.34211014 1.00737213 0.34211014 2.03509521 0.69113159 C3.49347512 1.18760443 4.95023835 1.68884648 6.40551758 2.19433594 C9.58044631 3.29684015 12.76324988 4.37572797 15.94580078 5.45599365 C17.64507555 6.03287392 19.34396181 6.61089974 21.04248047 7.19000244 C29.91173041 10.20922014 38.82076342 13.10246457 47.73449707 15.9871521 C66.52190899 22.06874472 85.26708775 28.27104336 103.9921875 34.54150391 C109.8104505 36.48954534 115.63187621 38.42809065 121.453125 40.3671875 C123.59376645 41.08067981 125.73439111 41.79422252 127.875 42.5078125 C129.54272461 43.0637207 129.54272461 43.0637207 131.24414062 43.63085938 C140.23242188 46.62695312 149.22070312 49.62304688 158.20898438 52.61914062 C158.9331958 52.86043701 159.65740723 53.1017334 160.40356445 53.3503418 C161.83074631 53.82628427 163.2576718 54.30299628 164.68432617 54.78051758 C168.21546284 55.96139671 171.75035562 57.12758301 175.29492188 58.26757812 C176.33305023 58.60459747 176.33305023 58.60459747 177.39215088 58.94842529 C179.28777768 59.56314399 181.18533238 60.17190843 183.08300781 60.78027344 C185.953125 61.8671875 185.953125 61.8671875 187.953125 63.8671875 C186.66549116 64.47990215 185.37266057 65.08169269 184.078125 65.6796875 C183.35882812 66.01613281 182.63953125 66.35257812 181.8984375 66.69921875 C178.66199374 67.9826361 175.40174665 68.94345077 172.06298828 69.9230957 C165.27139309 71.98488708 158.55743644 74.29928524 151.828125 76.5546875 C150.20407182 77.09772932 148.57996645 77.64061508 146.95581055 78.18334961 C143.74260159 79.25726844 140.52963463 80.33190594 137.31689453 81.40722656 C131.80145389 83.25299938 126.28369438 85.09179085 120.765625 86.9296875 C118.89451477 87.55333599 117.02342142 88.17703509 115.15234375 88.80078125 C100.33203125 93.74088542 85.51171875 98.68098958 70.69140625 103.62109375 C69.95647949 103.86609619 69.22155273 104.11109863 68.46435547 104.36352539 C67.10276715 104.81733473 65.74111551 105.27095413 64.37939453 105.72436523 C60.21616046 107.11093813 56.05489807 108.50328278 51.89453125 109.8984375 C50.82855713 110.25526611 49.76258301 110.61209473 48.66430664 110.97973633 C46.59145672 111.67362808 44.51899892 112.36869285 42.44702148 113.06518555 C38.03445368 114.54099428 33.62267776 115.98068743 29.15625 117.28515625 C21.7628145 119.47218501 14.51387674 122.11414028 7.24658203 124.68408203 C5.34298567 125.35619246 3.43713948 126.02191994 1.53125 126.6875 C0.41137695 127.08211426 -0.70849609 127.47672852 -1.86230469 127.88330078 C-7.49391433 129.62321085 -11.17929521 130.19734089 -16.81640625 128.28515625 C-18.52304443 127.72127197 -18.52304443 127.72127197 -20.26416016 127.14599609 C-21.51245605 126.72398926 -22.76075195 126.30198242 -24.046875 125.8671875 C-26.12738147 125.19541574 -28.21064213 124.53265793 -30.29403687 123.86990356 C-34.11172613 122.65296452 -37.92272937 121.41539969 -41.734375 120.1796875 C-42.54036133 119.91873291 -43.34634766 119.65777832 -44.17675781 119.38891602 C-55.6780519 115.66156063 -67.13832883 111.83979492 -78.5378418 107.80981445 C-84.59664345 105.67510445 -90.69170003 103.73475402 -96.83789062 101.8671875 C-101.78544237 100.32540631 -106.6632832 98.59897847 -111.546875 96.8671875 C-118.45021574 94.4420939 -125.3489569 92.08682927 -132.36523438 90.00585938 C-137.25095817 88.49478406 -142.09627993 86.87047228 -146.9453125 85.24609375 C-147.91815186 84.92096802 -148.89099121 84.59584229 -149.89331055 84.26086426 C-152.27809062 83.46374164 -154.66260316 82.66582874 -157.046875 81.8671875 C-157.03059913 89.32412381 -156.97581325 96.78006571 -156.89428711 104.23657227 C-156.87109482 106.77296501 -156.85670855 109.30945422 -156.85131836 111.84594727 C-156.84203842 115.49296274 -156.80106447 119.13845814 -156.75390625 122.78515625 C-156.7578389 123.91866013 -156.76177155 125.052164 -156.76582336 126.22001648 C-156.72755296 132.59744523 -156.72755296 132.59744523 -153.58862305 137.9777832 C-152.74984619 138.60128662 -151.91106934 139.22479004 -151.046875 139.8671875 C-148.77611129 143.68619919 -148.9031017 146.7642913 -149.5546875 151.0234375 C-150.046875 152.8671875 -150.046875 152.8671875 -151.609375 154.9296875 C-153.72645578 157.78314421 -153.3414363 160.46431729 -153.046875 163.8671875 C-152.40472387 167.89489186 -151.57600693 171.87699585 -150.734375 175.8671875 C-150.5072583 176.97118896 -150.2801416 178.07519043 -150.04614258 179.21264648 C-149.59319583 181.41426072 -149.13776568 183.61536568 -148.6796875 185.81591797 C-147.84312098 189.84964034 -147.03616695 193.88893865 -146.234375 197.9296875 C-145.88439453 199.67958984 -145.88439453 199.67958984 -145.52734375 201.46484375 C-145.36878906 202.25761719 -145.21023438 203.05039062 -145.046875 203.8671875 C-154.65004272 208.05766069 -166.59138715 208.70122466 -176.609375 205.3671875 C-177.74375 204.8721875 -178.878125 204.3771875 -180.046875 203.8671875 C-179.63991016 198.0646565 -178.57968925 192.58089227 -177.1640625 186.9453125 C-176.98522522 186.23298462 -176.80638794 185.52065674 -176.62213135 184.78674316 C-175.86796124 181.80534845 -175.10550106 178.82620084 -174.33447266 175.84912109 C-173.76849589 173.6542356 -173.21557312 171.45637027 -172.6640625 169.2578125 C-172.48704803 168.5900177 -172.31003357 167.9222229 -172.12765503 167.23419189 C-171.18380975 163.43955975 -170.82361323 160.60940814 -172.046875 156.8671875 C-172.748125 155.7740625 -173.449375 154.6809375 -174.171875 153.5546875 C-176.23842509 150.09283899 -176.40903729 147.65277838 -175.6640625 143.72265625 C-174.49788921 140.21675554 -172.26531767 137.85000128 -169.43534851 135.56730652 C-167.48267286 133.17634913 -167.68528468 131.53884349 -167.70629883 128.4777832 C-167.70652542 127.37686844 -167.70675201 126.27595367 -167.70698547 125.14167786 C-167.72246933 123.95410385 -167.73795319 122.76652985 -167.75390625 121.54296875 C-167.75815109 120.32643112 -167.76239594 119.10989349 -167.76676941 117.85649109 C-167.78358649 113.96399979 -167.82124541 110.07202279 -167.859375 106.1796875 C-167.87441787 103.54362726 -167.88810696 100.90755892 -167.90039062 98.27148438 C-167.93350001 91.8032094 -167.98372995 85.33523519 -168.046875 78.8671875 C-169.6089632 78.23734036 -171.1715657 77.60876866 -172.734375 76.98071289 C-173.60449219 76.63053604 -174.47460938 76.28035919 -175.37109375 75.91957092 C-179.55875383 74.27256631 -183.79703496 72.78217095 -188.046875 71.3046875 C-189.284375 70.86866211 -189.284375 70.86866211 -190.546875 70.42382812 C-195.66125486 68.63779078 -200.79193238 67.03555234 -206.015625 65.59790039 C-208.046875 64.8671875 -208.046875 64.8671875 -210.046875 62.8671875 C-205.72859819 61.37101865 -201.4093002 59.8778458 -197.08911133 58.38720703 C-195.62562461 57.88180496 -194.16239938 57.37564491 -192.69946289 56.86865234 C-184.50451949 54.02923799 -176.30132556 51.28468762 -167.99926758 48.77050781 C-163.46685924 47.38376252 -158.97650591 45.87842284 -154.484375 44.3671875 C-152.39845097 43.66923059 -150.31251249 42.97131682 -148.2265625 42.2734375 C-145.83332264 41.47138608 -143.44009434 40.66930017 -141.046875 39.8671875 C-106.1718469 28.18360865 -106.1718469 28.18360865 -89.91601562 23.01342773 C-79.97051686 19.84946357 -70.03791293 16.64641652 -60.109375 13.4296875 C-59.24655914 13.15066589 -58.38374329 12.87164429 -57.49478149 12.58416748 C-48.9479839 9.81809071 -40.4117887 7.03559749 -31.9453125 4.03125 C-30.75284912 3.60900146 -29.56038574 3.18675293 -28.33178711 2.75170898 C-26.17515828 1.98050695 -24.02199567 1.19950662 -21.87329102 0.40649414 C-20.92897217 0.06739014 -19.98465332 -0.27171387 -19.01171875 -0.62109375 C-17.81470337 -1.06255737 -17.81470337 -1.06255737 -16.59350586 -1.51293945 C-10.60938999 -2.96952753 -5.72655913 -1.97741153 0 0 Z " fill="#C1603B" transform="translate(431.046875,124.1328125)"/>
<path d="M0 0 C1 1 1 1 1.09765625 4.59765625 C1.09191272 6.08597255 1.07889891 7.57426296 1.0625 9.0625 C1.041875 11.681875 1.02125 14.30125 1 17 C-10.385 19.475 -10.385 19.475 -22 22 C-22.06962558 49.68708827 -22.12307508 77.37415524 -22.15543652 105.06131363 C-22.17086588 117.91867311 -22.1918798 130.775977 -22.22631836 143.63330078 C-22.25634153 154.84758251 -22.27560352 166.06182394 -22.28226548 177.27614474 C-22.28615596 183.20690577 -22.2952161 189.13755157 -22.31719017 195.06827545 C-22.33775998 200.6660713 -22.34379297 206.26370597 -22.33932304 211.86153603 C-22.34013918 213.90109194 -22.34598139 215.94065403 -22.35761642 217.98017693 C-22.44718278 234.51036789 -21.40469083 251.1768275 -16.4375 267.0625 C-16.06069092 268.28235596 -16.06069092 268.28235596 -15.67626953 269.52685547 C-8.96520147 290.03179824 4.06988679 308.73883962 18 325 C18.9590625 326.22783203 18.9590625 326.22783203 19.9375 327.48046875 C22.14384845 330.17572396 24.50965223 332.56548963 27 335 C27.94573523 335.95402243 28.88968756 336.90981491 29.83203125 337.8671875 C35.37300181 343.46998071 40.91276733 348.9845365 47 354 C47.49773926 354.4115332 47.99547852 354.82306641 48.50830078 355.24707031 C58.68059495 363.62217065 69.25223389 371.38351531 80 379 C80.97066406 379.6909375 81.94132813 380.381875 82.94140625 381.09375 C91.86005806 387.39263731 100.97837526 393.38404663 110.2109375 399.2109375 C113.21408919 401.13732892 116.16909835 403.12696015 119.125 405.125 C123.20519059 407.85909434 127.31262542 410.35438257 131.6328125 412.68359375 C134.41296863 414.22965417 137.10831133 415.88700397 139.8125 417.5625 C140.90304687 418.23410156 141.99359375 418.90570312 143.1171875 419.59765625 C145.23109053 420.90151164 147.33938924 422.21325477 149.44238281 423.53466797 C152.09991395 425.20216753 154.76799505 426.85175256 157.4375 428.5 C158.71620972 429.31126343 158.71620972 429.31126343 160.02075195 430.13891602 C166.06002385 433.9572847 166.06002385 433.9572847 173 434 C175.65922875 432.88001202 178.09181242 431.48484672 180.5625 430 C181.18962891 429.63777344 181.81675781 429.27554687 182.46289062 428.90234375 C187.91362973 425.72767833 193.26582429 422.38692762 198.63354492 419.07470703 C201.80002012 417.12324527 204.9728559 415.18269131 208.1484375 413.24609375 C233.19414588 397.94425522 257.96377827 382.23575089 281 364 C281.93199219 363.26265625 282.86398437 362.5253125 283.82421875 361.765625 C289.79198092 356.96417298 295.47166233 351.9112202 301.078125 346.69921875 C303.78878029 344.19512409 306.5427361 341.75073155 309.3125 339.3125 C312.90225317 336.08858155 316.14428413 332.75446451 319.2421875 329.05859375 C320.45490327 327.63836883 321.71395536 326.25687525 323.0078125 324.91015625 C341.26571882 305.76880285 353.13038348 281.45802218 359.88671875 256.1640625 C360.08330078 255.46039551 360.27988281 254.75672852 360.48242188 254.03173828 C361.09806042 251.74745319 361.09806042 251.74745319 361.57421875 248.34375 C363.72729506 243.29434363 367.48560499 241.54510498 372.125 238.875 C372.95515625 238.37613281 373.7853125 237.87726563 374.640625 237.36328125 C376.28582777 236.37564385 377.9358375 235.39596465 379.59082031 234.42480469 C383.10224644 232.34812422 386.5492077 230.17567274 390 228 C392.40253967 262.16945307 376.87812712 298.37183677 356.5625 325.0625 C355.80710937 326.05507813 355.05171875 327.04765625 354.2734375 328.0703125 C350.89784534 332.4203024 347.46389996 336.72019213 344 341 C343.36707031 341.81597656 342.73414063 342.63195312 342.08203125 343.47265625 C339.86392614 346.16517784 337.4940298 348.56122936 335 351 C333.9813868 352.02697619 332.96454554 353.05571206 331.94921875 354.0859375 C326.14205321 359.95145762 320.32165939 365.6851234 314 371 C312.67742187 372.15628906 312.67742187 372.15628906 311.328125 373.3359375 C301.63153804 381.76644488 291.34859063 389.39425243 281 397 C280.3591748 397.47324707 279.71834961 397.94649414 279.05810547 398.43408203 C268.67539885 406.08129463 257.86011576 413.05460132 247 420 C246.19868652 420.51353027 245.39737305 421.02706055 244.57177734 421.55615234 C232.5180322 429.2686639 220.30944302 436.70347499 208 444 C207.23880859 444.45149414 206.47761719 444.90298828 205.69335938 445.36816406 C200.80605195 448.26347827 195.90865091 451.14102304 191 454 C190.32582031 454.39268066 189.65164063 454.78536133 188.95703125 455.18994141 C187.0152793 456.31809178 185.0708367 457.44141243 183.125 458.5625 C182.01382813 459.20316406 180.90265625 459.84382813 179.7578125 460.50390625 C175.21191532 462.97002327 171.11205721 463.75024122 166 463 C162.69801084 461.72239706 159.7284342 459.99023838 156.6875 458.1875 C155.82374756 457.69338623 154.95999512 457.19927246 154.07006836 456.69018555 C152.26789727 455.65623347 150.47014719 454.61453982 148.67675781 453.56542969 C146.10366747 452.06062712 143.51929038 450.57772708 140.9296875 449.1015625 C132.44919752 444.25339859 124.03949795 439.29818005 115.76416016 434.10595703 C114.50748193 433.31814187 113.24916442 432.53293905 111.98974609 431.74951172 C102.03196117 425.55480403 92.19654526 419.19101645 82.4375 412.6875 C80.95769653 411.70136719 80.95769653 411.70136719 79.44799805 410.6953125 C70.47768336 404.69236427 61.62038366 398.55952421 53 392.0625 C52.31284912 391.54526367 51.62569824 391.02802734 50.91772461 390.49511719 C43.17130181 384.64457016 35.60559402 378.66157404 28.3984375 372.15234375 C27.03667389 370.93030507 25.66838087 369.71522372 24.28027344 368.52319336 C18.79196029 363.79851322 13.62175273 358.80514217 8.5 353.6875 C7.29537109 352.50124023 7.29537109 352.50124023 6.06640625 351.29101562 C0.5976169 345.83552155 -4.27610834 340.10606251 -9 334 C-9.89350872 332.88875186 -10.78900672 331.77909679 -11.6875 330.671875 C-17.13072608 323.79428529 -21.7819739 316.73633784 -25.92871094 308.99414062 C-27.10507956 306.80440067 -28.3067561 304.6294137 -29.5078125 302.453125 C-40.14104828 282.97343455 -48.189386 262.35026405 -48.12025452 239.86343384 C-48.12110894 238.8455863 -48.12196337 237.82773877 -48.12284368 236.77904737 C-48.12449003 233.3704212 -48.1189909 229.96184429 -48.11352539 226.55322266 C-48.11324331 224.10901897 -48.11340166 221.66481521 -48.1139679 219.22061157 C-48.11419557 213.95941154 -48.11136018 208.69822683 -48.10573006 203.43703079 C-48.0975952 195.83027179 -48.0949978 188.22351877 -48.09374207 180.61675589 C-48.09155467 168.2746112 -48.08490304 155.93247313 -48.07543945 143.59033203 C-48.06625726 131.60270216 -48.05918037 119.61507409 -48.05493164 107.62744141 C-48.05453756 106.51864356 -48.05453756 106.51864356 -48.05413551 105.38744576 C-48.05283045 101.67901991 -48.05156675 97.97059404 -48.05032361 94.26216817 C-48.03996072 63.5081073 -48.02227643 32.75405466 -48 2 C-45.75292038 1.19311978 -43.50547697 0.3872793 -41.2578125 -0.41796875 C-40.62464111 -0.645448 -39.99146973 -0.87292725 -39.33911133 -1.1072998 C-25.02372409 -6.23192866 -14.00973639 -6.09553438 0 0 Z " fill="#182C49" transform="translate(250,212)"/>
<path d="M0 0 C29 0 29 0 37.25 7.8125 C40.34765625 12.5390625 40.34765625 12.5390625 41.71533203 14.87207031 C43.43666894 17.72330035 45.50984863 20.1739544 47.6875 22.6875 C50.99359649 26.72828459 54.22341126 30.8236447 57.4375 34.9375 C61.7277667 40.42784653 66.1271711 45.80583626 70.60546875 51.14453125 C76.91578096 58.66955282 83.07124736 66.30814286 89.10717773 74.05419922 C93.84133862 80.88482413 93.84133862 80.88482413 100 86 C100 57.62 100 29.24 100 0 C139.58205772 -0.04030303 139.58205772 -0.04030303 156.11523438 -0.04882812 C167.55005337 -0.05477151 178.98486501 -0.06177426 190.41967773 -0.07543945 C198.74602007 -0.08538514 207.07235648 -0.09185315 215.39870459 -0.09408849 C219.81024857 -0.0953958 224.22177557 -0.09848288 228.63331413 -0.10573006 C232.78070387 -0.11248846 236.92806953 -0.11461733 241.07546425 -0.11310768 C242.6021373 -0.11338409 244.12881112 -0.11539028 245.65547943 -0.11920547 C247.73083459 -0.12413994 249.80609742 -0.12299923 251.88145447 -0.12025452 C253.62779128 -0.12163721 253.62779128 -0.12163721 255.40940762 -0.12304783 C258 0 258 0 259 1 C259.08758003 2.99964982 259.10696576 5.0023611 259.09765625 7.00390625 C259.09515869 8.09775635 259.09266113 9.19160645 259.09008789 10.31860352 C259.07643188 12.41933228 259.07643188 12.41933228 259.0625 14.5625 C259.041875 18.996875 259.02125 23.43125 259 28 C243.49 28 227.98 28 212 28 C212 66.28 212 104.56 212 144 C201.11 144 190.22 144 179 144 C179 105.72 179 67.44 179 28 C163.82 28 148.64 28 133 28 C133 66.28 133 104.56 133 144 C104 144 104 144 96.875 137.875 C95.60969863 135.93695726 94.34341183 133.99650585 93.19189453 131.98876953 C91.21196663 128.6851045 88.74158452 125.79183975 86.3125 122.8125 C85.39937306 121.64554762 84.48915113 120.47631551 83.58203125 119.3046875 C78.03034697 112.17532932 72.22886722 105.25640245 66.375 98.375 C62.69931362 94.05296287 59.12340961 89.67530587 55.671875 85.171875 C53.17589001 81.92942721 50.61023162 78.74398004 48.046875 75.5546875 C46.65380097 73.8160035 45.26866618 72.07093519 43.890625 70.3203125 C43.20484375 69.45148438 42.5190625 68.58265625 41.8125 67.6875 C41.20019531 66.90761719 40.58789062 66.12773437 39.95703125 65.32421875 C37.78820792 62.74847048 35.38099494 60.38099494 33 58 C32.67 86.38 32.34 114.76 32 144 C21.44 144 10.88 144 0 144 C0 96.48 0 48.96 0 0 Z " fill="#192D4A" transform="translate(290,379)"/>
<path d="M0 0 C-1.38837836 7.28144086 -3.69889822 13.83518698 -6.5 20.6875 C-6.94214844 21.77603271 -7.38429688 22.86456543 -7.83984375 23.98608398 C-16.19145465 44.36975188 -25.17464493 62.92697881 -38.25 80.6875 C-38.7332373 81.34733887 -39.21647461 82.00717773 -39.71435547 82.68701172 C-44.86060382 89.49640915 -50.3475034 93.54943376 -58.25 96.625 C-58.94996094 96.91117187 -59.64992188 97.19734375 -60.37109375 97.4921875 C-65.86465848 99.69361599 -71.28341857 101.28502557 -77 103 C-68.75 103 -60.5 103 -52 103 C-78.54688271 157.62531635 -78.54688271 157.62531635 -104 167 C-109.26209717 168.63184394 -114.61289925 169.86028486 -120 171 C-111.59784035 171.11039334 -103.35263176 170.95458649 -95 170 C-96.59072748 173.92132821 -99.28509801 176.5827908 -102.25 179.5 C-102.71535156 179.97308594 -103.18070313 180.44617188 -103.66015625 180.93359375 C-106.86145384 184.11725333 -110.18953113 186.5959494 -114 189 C-115.07636719 189.70898438 -116.15273438 190.41796875 -117.26171875 191.1484375 C-122.62401669 194.64427018 -127.96355322 198.06333008 -133.625 201.0625 C-145.92485169 207.62967745 -155.1421946 214.87026087 -163.3125 226.0625 C-163.9624292 226.94736084 -163.9624292 226.94736084 -164.62548828 227.85009766 C-167.61068026 232.06469414 -169.39568006 235.95551479 -170.41259766 241.07861328 C-171.54183334 246.76394182 -173.38515235 251.37320717 -176.1875 256.4375 C-176.78208008 257.5356604 -176.78208008 257.5356604 -177.38867188 258.65600586 C-180.524082 264.35372045 -183.84951819 269.97248186 -188 275 C-188.33 275 -188.66 275 -189 275 C-188.39285717 267.2958498 -186.63174187 260.13815112 -184.625 252.6875 C-184.01252439 250.37903791 -183.40054177 248.07044496 -182.7890625 245.76171875 C-182.3396228 244.07816284 -182.3396228 244.07816284 -181.88110352 242.3605957 C-180.76408955 238.10021962 -179.72060273 233.82341041 -178.69360352 229.54052734 C-178.06169231 227.22596627 -177.28367738 225.1269992 -176.3125 222.9375 C-173.70279485 216.26214893 -174.71646808 209.25436174 -176 202.375 C-181.37245647 169.63416021 -172.28812818 136.31186849 -154.34765625 108.80859375 C-153.90292969 108.21175781 -153.45820312 107.61492187 -153 107 C-152.67 107 -152.34 107 -152 107 C-151.91435791 107.59538574 -151.82871582 108.19077148 -151.74047852 108.80419922 C-151.35138747 111.49499629 -150.95700999 114.18499232 -150.5625 116.875 C-150.42779297 117.81214844 -150.29308594 118.74929688 -150.15429688 119.71484375 C-150.02216797 120.61074219 -149.89003906 121.50664062 -149.75390625 122.4296875 C-149.63345947 123.25710449 -149.5130127 124.08452148 -149.38891602 124.93701172 C-149.08743328 127.05327767 -149.08743328 127.05327767 -148 129 C-147.96261719 127.87464844 -147.92523437 126.74929688 -147.88671875 125.58984375 C-146.97687893 102.5943354 -142.14111709 87.67207489 -126 71 C-124.8029193 69.63333287 -123.61446735 68.25902642 -122.4375 66.875 C-116.168087 59.67842029 -109.28472489 53.15364006 -102 47 C-100.90751953 46.03900391 -100.90751953 46.03900391 -99.79296875 45.05859375 C-74.19575774 23.16995504 -35.11850438 -0.83615487 0 0 Z " fill="#182C48" transform="translate(743,244)"/>
<path d="M0 0 C12.31145345 2.23844608 12.31145345 2.23844608 16.5625 3.9375 C19.85477307 5.23860632 23.14421896 6.35674031 26.5390625 7.3515625 C33.81704649 9.50241414 40.94659314 12.0769761 48.10351562 14.59570312 C54.63731209 16.87962367 61.19598869 19.01007147 67.8190918 21.01977539 C72.91010711 22.58861617 77.95225295 24.2981362 83 26 C85.09485566 26.69720504 87.18990613 27.39382504 89.28515625 28.08984375 C92.57264176 29.18352673 95.85242628 30.29282006 99.12109375 31.44140625 C100.21550781 31.81136719 101.30992187 32.18132812 102.4375 32.5625 C103.32308594 32.87316406 104.20867187 33.18382812 105.12109375 33.50390625 C112.05645827 34.69900977 118.6219585 32.74992748 125.125 30.4375 C125.87998779 30.17791504 126.63497559 29.91833008 127.4128418 29.65087891 C129.94549507 28.77726816 132.47288231 27.88948963 135 27 C138.93687307 25.62320312 142.87469533 24.24912976 146.8125 22.875 C147.80378906 22.52824219 148.79507813 22.18148437 149.81640625 21.82421875 C155.71060389 19.76994075 161.62103621 17.83632381 167.6015625 16.046875 C172.09157975 14.66374325 176.54449379 13.17752355 181 11.6875 C181.88792236 11.39141846 182.77584473 11.09533691 183.69067383 10.7902832 C188.38043065 9.22311265 193.06301033 7.63722853 197.73828125 6.02734375 C198.67220703 5.70870361 199.60613281 5.39006348 200.56835938 5.06176758 C202.34660062 4.45472917 204.1227978 3.84165607 205.89648438 3.22143555 C206.71052734 2.94468994 207.52457031 2.66794434 208.36328125 2.3828125 C209.41962769 2.01760498 209.41962769 2.01760498 210.49731445 1.64501953 C213.92875726 0.76063051 217.48378614 0.43952673 221 0 C221 23.1 221 46.2 221 70 C204.17 70.99 204.17 70.99 187 72 C166.56278242 76.40457276 148.17667239 81.96258799 131 94 C130.16339844 94.56460938 129.32679688 95.12921875 128.46484375 95.7109375 C122.40533122 99.85051175 116.67524293 104.35113079 111 109 C107.30238913 107.41530963 104.68847557 105.08981451 101.6875 102.4375 C92.85499153 94.85131344 82.61415365 88.76898355 72 84 C70.82630859 83.43925781 70.82630859 83.43925781 69.62890625 82.8671875 C47.18885835 72.74529355 24.5761476 71.48946349 0 70 C0 46.9 0 23.8 0 0 Z " fill="#C0603C" transform="translate(310,230)"/>
<path d="M0 0 C6.44175431 5.02456837 10.64053872 12.91058865 12.7578125 20.68359375 C13.9168919 32.81349446 12.11634855 42.31715711 4.45703125 51.8671875 C-0.32779795 56.98200492 -5.72139505 60.26848544 -12.2421875 62.68359375 C-13.1290625 63.07546875 -14.0159375 63.46734375 -14.9296875 63.87109375 C-24.10567862 66.12180855 -32.87836237 65.03948419 -41.2421875 60.68359375 C-49.33916213 55.26690015 -56.18694409 46.33134795 -58.2421875 36.68359375 C-59.42633063 26.27482942 -57.22647096 17.41620776 -51.0546875 8.93359375 C-37.38509125 -7.22138364 -18.36619178 -10.78293838 0 0 Z " fill="#1A2D47" transform="translate(633.2421875,655.31640625)"/>
<path d="M0 0 C3.76390454 3.07257514 6.47726414 6.40204099 9.0625 10.5 C9.44535156 11.10328125 9.82820312 11.7065625 10.22265625 12.328125 C11.39478925 15.35931545 11.25221217 18.01439159 11.1875 21.25 C11.16945313 22.42046875 11.15140625 23.5909375 11.1328125 24.796875 C11.10960937 25.68890625 11.08640625 26.5809375 11.0625 27.5 C11.71323486 27.58040527 12.36396973 27.66081055 13.03442383 27.74365234 C15.98237551 28.11257391 18.92863263 28.49364069 21.875 28.875 C22.89916016 29.00132812 23.92332031 29.12765625 24.97851562 29.2578125 C25.96142578 29.38671875 26.94433594 29.515625 27.95703125 29.6484375 C28.86300049 29.76364746 29.76896973 29.87885742 30.70239258 29.99755859 C33.0625 30.5 33.0625 30.5 36.0625 32.5 C29.49507218 41.58121282 29.49507218 41.58121282 25.0625 44.5 C20.38166634 45.05298632 16.52507892 43.86926335 12.0625 42.5 C8.64798528 41.66661077 5.5591338 40.93149136 2.0625 41.5 C-0.97620639 43.7134462 -3.14607334 46.19594486 -4.9375 49.5 C-5.37559013 53.5364404 -5.37559013 53.5364404 -2.8125 55.9375 C0.09651036 58.53031358 3.04055497 61.0402773 6.0625 63.5 C5.47713247 67.16060821 3.979261 69.04535164 1.5 71.75 C0.85933594 72.45640625 0.21867188 73.1628125 -0.44140625 73.890625 C-1.18197266 74.68726563 -1.18197266 74.68726563 -1.9375 75.5 C-5.85079453 74.95354896 -7.52468985 73.20064387 -10.1875 70.375 C-15.22863599 65.16003173 -20.54657781 60.42732317 -26.1875 55.875 C-28.9375 53.5 -28.9375 53.5 -30.8125 51.125 C-34.31012096 46.8044094 -38.6470285 43.40872625 -42.90625 39.859375 C-49.37257157 34.4342408 -49.37257157 34.4342408 -50.9375 31.5 C-50.49073474 28.31345287 -49.44822363 26.62251751 -47.2421875 24.328125 C-46.69457764 23.74998047 -46.14696777 23.17183594 -45.58276367 22.57617188 C-44.99857666 21.97353516 -44.41438965 21.37089844 -43.8125 20.75 C-42.61745416 19.49577742 -41.42343481 18.24057594 -40.23046875 16.984375 C-39.65731934 16.38302734 -39.08416992 15.78167969 -38.49365234 15.16210938 C-36.62779485 13.1692073 -34.87007439 11.0989706 -33.125 9 C-25.1094594 -0.24870069 -12.02954879 -6.10896549 0 0 Z " fill="#1B2D47" transform="translate(677.9375,598.5)"/>
<path d="M0 0 C1.22783203 0.30744141 1.22783203 0.30744141 2.48046875 0.62109375 C7.13990428 1.87526481 9.83428318 2.92500599 13 6.75 C13.55503845 9.48625183 13.55503845 9.48625183 13.62866211 12.66088867 C13.66386459 13.85280319 13.69906708 15.04471771 13.7353363 16.27275085 C13.74919876 17.55817276 13.76306122 18.84359467 13.77734375 20.16796875 C13.79783631 21.5083284 13.81847358 22.84868584 13.83924866 24.18904114 C13.87671346 26.99923643 13.89612729 29.80896587 13.90600586 32.61938477 C13.92231614 36.20116399 14.00789341 39.77763428 14.11069393 43.35782909 C14.17811168 46.12830435 14.19535193 48.89753115 14.19940376 51.66875648 C14.21450356 53.62391965 14.28109766 55.57846965 14.34886169 57.53251648 C14.29527583 62.88969535 14.21684758 66.3516366 10.61322021 70.49281311 C7.83478556 72.77089419 4.99001511 74.76260976 2 76.75 C0.60732509 77.96221074 -0.76617891 79.19760765 -2.1015625 80.47265625 C-2.69324219 81.03017578 -3.28492188 81.58769531 -3.89453125 82.16210938 C-4.46558594 82.70673828 -5.03664063 83.25136719 -5.625 83.8125 C-11.87291435 89.75 -11.87291435 89.75 -13 89.75 C-13.33 68.3 -13.66 46.85 -14 24.75 C-26.81558237 21.69867086 -38.6388243 18.96964382 -51.5625 17.5625 C-54.23171782 17.26577859 -56.89897692 16.95748477 -59.56640625 16.64453125 C-60.71052979 16.51925049 -61.85465332 16.39396973 -63.03344727 16.26489258 C-65.76216333 15.79128035 -67.63431955 15.14772136 -70 13.75 C-63.41368553 11.26858293 -56.80039715 9.03716846 -50.0546875 7.03125 C-46.75453943 6.01899801 -43.50906493 4.87802963 -40.2578125 3.71875 C-39.21971436 3.35491211 -38.18161621 2.99107422 -37.11206055 2.61621094 C-35.04569709 1.88965447 -32.98428114 1.14881818 -30.92895508 0.39160156 C-20.26554256 -3.32184116 -10.7900236 -3.01979384 0 0 Z " fill="#1B2E49" transform="translate(627,209.25)"/>
<path d="M0 0 C2.53998491 0.27934661 3.66872269 0.59212103 5.30078125 2.6015625 C7.76175748 7.52351496 8.51472069 10.50913748 7 16 C6.06106624 18.49959392 5.06137537 20.96397644 4.02734375 23.42578125 C3.09111149 25.77170163 2.36130594 28.06843942 1.6875 30.5 C-0.0003411 36.40272921 -2.30158124 42.0598241 -4.57543945 47.75585938 C-4.87281006 48.50416016 -5.17018066 49.25246094 -5.4765625 50.0234375 C-5.74549316 50.69294434 -6.01442383 51.36245117 -6.29150391 52.05224609 C-7.00553051 54.01520413 -7.52994649 55.96612551 -8 58 C-0.35746937 54.05178235 6.98017637 49.90900864 14.06494141 45.02172852 C17.99872618 42.3838405 21.45360871 41.08768095 26 40 C27.035969 41.57347176 28.05331732 43.15921546 29.0625 44.75 C29.63097656 45.63171875 30.19945312 46.5134375 30.78515625 47.421875 C32 50 32 50 31.79785156 52.01269531 C30.78232825 54.54218116 29.82057765 55.07571993 27.44921875 56.375 C26.69793701 56.79676514 25.94665527 57.21853027 25.17260742 57.65307617 C24.35252197 58.09756104 23.53243652 58.5420459 22.6875 59 C20.94696172 59.9735551 19.2074096 60.94887499 17.46875 61.92578125 C16.56640625 62.42932129 15.6640625 62.93286133 14.734375 63.45166016 C10.33318335 65.94383493 6.01280274 68.56654669 1.6875 71.1875 C-20.27468941 84.42489647 -20.27468941 84.42489647 -25 86 C-25.8834003 84.70699541 -26.7302975 83.38903532 -27.5625 82.0625 C-28.03816406 81.33160156 -28.51382813 80.60070312 -29.00390625 79.84765625 C-31.50481567 72.69799756 -28.24231421 65.09569824 -25.62109375 58.37109375 C-25.28956802 57.49598648 -24.9580423 56.62087921 -24.61647034 55.71925354 C-23.5666251 52.95480998 -22.50235545 50.19619163 -21.4375 47.4375 C-20.71843613 45.55179995 -20.00032773 43.66573527 -19.28320312 41.77929688 C-17.53315009 37.18190976 -15.77014837 32.58968516 -14 28 C-17.44465825 29.12688574 -20.66407026 30.19710971 -23.8125 32 C-24.56402344 32.42539062 -25.31554687 32.85078125 -26.08984375 33.2890625 C-28.49157466 34.70108685 -30.87447665 36.13695589 -33.25390625 37.5859375 C-34.01276123 38.04355469 -34.77161621 38.50117187 -35.5534668 38.97265625 C-37.09041031 39.90106129 -38.62195571 40.8384672 -40.14770508 41.78515625 C-40.85950928 42.21441406 -41.57131348 42.64367187 -42.3046875 43.0859375 C-42.94390137 43.4782959 -43.58311523 43.8706543 -44.24169922 44.27490234 C-46 45 -46 45 -49 44 C-50.64820195 41.39757586 -51 40.13751221 -51 37 C-51.66 37 -52.32 37 -53 37 C-53.33 35.02 -53.66 33.04 -54 31 C-53.31599121 30.61779297 -52.63198242 30.23558594 -51.92724609 29.84179688 C-35.00835467 20.39509316 -35.00835467 20.39509316 -18.1640625 10.81640625 C-15.80801987 9.46386326 -13.4488478 8.11778555 -11.0859375 6.77734375 C-10.43455811 6.40722168 -9.78317871 6.03709961 -9.11206055 5.65576172 C-7.85899799 4.9439497 -6.60528664 4.2332782 -5.35083008 3.52392578 C-2.50496861 1.99807784 -2.50496861 1.99807784 0 0 Z " fill="#1C2E48" transform="translate(147,537)"/>
<path d="M0 0 C1.1653125 0.36867188 2.330625 0.73734375 3.53125 1.1171875 C6.5 2.125 6.5 2.125 8.5 3.125 C8.93896484 4.89868164 8.93896484 4.89868164 9.2109375 7.28515625 C9.31946045 8.20498291 9.4279834 9.12480957 9.53979492 10.07250977 C9.6504126 11.10045654 9.76103027 12.12840332 9.875 13.1875 C9.99657471 14.25991943 10.11814941 15.33233887 10.2434082 16.43725586 C10.67713592 20.33165156 11.09071864 24.22798089 11.5 28.125 C11.58461487 28.92534668 11.66922974 29.72569336 11.75640869 30.55029297 C12.41244383 36.76145233 13.05338278 42.97406822 13.6875 49.1875 C13.7780365 50.06584503 13.868573 50.94419006 13.96185303 51.84915161 C14.2224682 54.38989741 14.47732682 56.93115619 14.73046875 59.47265625 C14.84742851 60.60429199 14.84742851 60.60429199 14.9667511 61.75878906 C15.43780929 66.57116502 15.56723323 71.28932697 15.5 76.125 C13.95627181 75.69483068 12.41510913 75.25545174 10.875 74.8125 C10.01648438 74.56886719 9.15796875 74.32523438 8.2734375 74.07421875 C2.31767796 72.03583908 2.31767796 72.03583908 -0.5 70.125 C-1.3046875 66.76953125 -1.3046875 66.76953125 -1.375 62.9375 C-1.43300781 61.02904297 -1.43300781 61.02904297 -1.4921875 59.08203125 C-1.49605469 57.61830078 -1.49605469 57.61830078 -1.5 56.125 C-2.10996826 55.89312988 -2.71993652 55.66125977 -3.34838867 55.42236328 C-6.12826099 54.3653515 -8.90788259 53.30768194 -11.6875 52.25 C-12.64720703 51.88519531 -13.60691406 51.52039063 -14.59570312 51.14453125 C-15.52705078 50.79003906 -16.45839844 50.43554688 -17.41796875 50.0703125 C-18.27156982 49.74562988 -19.1251709 49.42094727 -20.00463867 49.08642578 C-21.73441454 48.41996874 -23.45201865 47.72137556 -25.15869141 46.99780273 C-28.13796336 45.88717737 -29.52586441 46.02329318 -32.5 47.125 C-34.81122358 49.167832 -34.81122358 49.167832 -36.8125 51.6875 C-37.50988281 52.51378906 -38.20726562 53.34007812 -38.92578125 54.19140625 C-39.44527344 54.82949219 -39.96476562 55.46757813 -40.5 56.125 C-45.5 54.45833333 -50.5 52.79166667 -55.5 51.125 C-51.47733361 46.35729492 -47.33160133 41.73503476 -43.0625 37.1875 C-39.54432672 33.42373431 -36.04612176 29.65807371 -32.6875 25.75 C-29.77624026 22.37150104 -26.65018094 19.25963796 -23.4765625 16.12890625 C-19.70684498 12.30703848 -16.25141852 8.21059723 -12.80078125 4.1015625 C-12.26839844 3.46992187 -11.73601562 2.83828125 -11.1875 2.1875 C-10.71699219 1.62160156 -10.24648438 1.05570313 -9.76171875 0.47265625 C-6.56312124 -2.94380239 -4.0800679 -1.30887134 0 0 Z " fill="#1B2E48" transform="translate(323.5,695.875)"/>
<path d="M0 0 C1.63234937 0.90351441 3.25566824 1.8233569 4.875 2.75 C5.77992188 3.26046875 6.68484375 3.7709375 7.6171875 4.296875 C10.07970989 6.05697297 10.94467523 7.21006094 12 10 C11.07767578 11.32064453 11.07767578 11.32064453 10.13671875 12.66796875 C9.32022829 13.84108723 8.50382675 15.0142676 7.6875 16.1875 C7.28337891 16.76564453 6.87925781 17.34378906 6.46289062 17.93945312 C5.29626846 19.61825087 4.14516169 21.30650855 3 23 C2.38769531 23.90363281 1.77539062 24.80726563 1.14453125 25.73828125 C0.76683594 26.48464844 0.38914063 27.23101563 0 28 C1.26616779 31.79850338 2.56660535 32.25592332 5.9375 34.3125 C7.4225 35.21935547 7.4225 35.21935547 8.9375 36.14453125 C9.948125 36.75683594 10.95875 37.36914062 12 38 C12.928125 38.60199219 13.85625 39.20398438 14.8125 39.82421875 C15.67875 40.37722656 16.545 40.93023438 17.4375 41.5 C18.21996094 42.0053125 19.00242187 42.510625 19.80859375 43.03125 C21.91088281 44.12087789 21.91088281 44.12087789 24.03125 44.08203125 C27.2016265 42.33958226 28.44385887 39.29067519 30.0625 36.1875 C34.2398614 28.41362936 34.2398614 28.41362936 37 25 C40.49844386 25.63389235 42.84086876 27.05177694 45.75 29.0625 C46.54921875 29.61035156 47.3484375 30.15820312 48.171875 30.72265625 C48.77515625 31.14417969 49.3784375 31.56570313 50 32 C48.57467121 35.8782922 46.75429639 39.24029268 44.5859375 42.75390625 C43.90660156 43.85669922 43.22726562 44.95949219 42.52734375 46.09570312 C42.17269043 46.66683838 41.81803711 47.23797363 41.45263672 47.82641602 C40.39484109 49.5305358 39.34383704 51.2388653 38.29296875 52.94726562 C34.24363824 59.4998877 30.06845288 65.94859723 25.77197266 72.34155273 C23.60009788 75.59996338 21.53599712 78.9051476 19.5 82.25 C18.49453125 83.89742187 18.49453125 83.89742187 17.46875 85.578125 C16.9840625 86.37734375 16.499375 87.1765625 16 88 C10.73444272 86.40392456 7.33852428 84.29727845 3 81 C4.4801675 75.61219031 7.04726671 71.43983822 10.0625 66.8125 C10.97287472 65.40416435 11.8805446 63.99407558 12.78515625 62.58203125 C13.18613525 61.96561768 13.58711426 61.3492041 14.00024414 60.71411133 C15.16095011 58.85848714 15.16095011 58.85848714 16 56 C15.3296875 55.773125 14.659375 55.54625 13.96875 55.3125 C9.44823842 53.31395804 5.57833787 50.44043219 1.52734375 47.6328125 C-1.88803215 45.30069724 -5.04664829 43.3380575 -9 42 C-9.31751221 42.4940332 -9.63502441 42.98806641 -9.9621582 43.49707031 C-11.41072512 45.74904632 -12.86158939 47.99953335 -14.3125 50.25 C-15.06176758 51.41595703 -15.06176758 51.41595703 -15.82617188 52.60546875 C-16.31279297 53.35957031 -16.79941406 54.11367188 -17.30078125 54.890625 C-17.96847534 55.92751465 -17.96847534 55.92751465 -18.6496582 56.98535156 C-20.03166813 59.04724741 -21.49364109 61.02761735 -23 63 C-28.19822672 61.63855967 -31.09543873 59.53269829 -35 56 C-34.43080664 52.12537049 -33.34246632 49.56854401 -31.1875 46.3125 C-30.55714844 45.35214844 -29.92679688 44.39179687 -29.27734375 43.40234375 C-28.51899465 42.26771717 -27.75981395 41.13364615 -27 40 C-26.08441262 38.62645057 -25.16906238 37.25274305 -24.25390625 35.87890625 C-22.73939652 33.60676671 -21.22357616 31.33555408 -19.70385742 29.06689453 C-15.61092236 22.94954507 -11.60293918 16.78066433 -7.65332031 10.56982422 C-5.28351167 6.87027956 -2.82316554 3.3786495 0 0 Z " fill="#1B2E47" transform="translate(237,649)"/>
<path d="M0 0 C1.0141236 5.00973977 2.01012136 10.02265317 2.99072266 15.0390625 C3.32549016 16.73889824 3.66487442 18.43783246 4.00927734 20.13574219 C9.73031747 48.39067504 9.73031747 48.39067504 3.6015625 58.81640625 C-1.68421259 66.02310936 -8.23636588 70.18942034 -17 72 C-25.64013089 72.82979475 -34.64480303 73.32346162 -42 68 C-51.36959972 59.83596954 -53.1370699 47.86644227 -55.29248047 36.26977539 C-55.75130258 33.80550402 -56.22782845 31.34514651 -56.70703125 28.88476562 C-57.00885269 27.30488586 -57.30966929 25.72481373 -57.609375 24.14453125 C-57.74994324 23.4162764 -57.89051147 22.68802155 -58.03533936 21.93769836 C-58.79669875 17.80135462 -59 14.27076372 -59 10 C-52.07 9.01 -52.07 9.01 -45 8 C-43.22833658 12.42915856 -42.21312295 16.50647254 -41.37890625 21.15234375 C-41.08028448 22.74938756 -40.78144979 24.34639156 -40.48242188 25.94335938 C-40.02068564 28.44203727 -39.5618298 30.9411852 -39.10717773 33.44116211 C-38.66392053 35.86724858 -38.20953718 38.29105519 -37.75390625 40.71484375 C-37.55686852 41.82604836 -37.55686852 41.82604836 -37.35585022 42.95970154 C-36.35034476 48.26477185 -35.06625927 53.12158248 -30.9375 56.875 C-26.5844281 58.54213392 -22.60019256 58.66348931 -18 58 C-13.44547543 55.76414249 -11.26853068 53.47571678 -9 49 C-7.57609419 39.81353907 -10.03777115 30.50556648 -12 21.5625 C-12.56919448 18.91931107 -13.12941564 16.27449185 -13.6875 13.62890625 C-14.06455078 11.8974939 -14.06455078 11.8974939 -14.44921875 10.13110352 C-14.94138871 7.33319585 -15.11131715 4.83030476 -15 2 C-13.06524329 1.46906676 -11.12706845 0.95057683 -9.1875 0.4375 C-8.10855469 0.14746094 -7.02960938 -0.14257812 -5.91796875 -0.44140625 C-3 -1 -3 -1 0 0 Z " fill="#1C2F49" transform="translate(505,703)"/>
<path d="M0 0 C3.740665 0.55570855 5.3425749 2.009785 7.8125 4.8125 C8.43769531 5.49957031 9.06289062 6.18664062 9.70703125 6.89453125 C11 9 11 9 11.01171875 10.94921875 C8.54777872 15.94369179 3.38581048 19.5057494 -0.6875 23.1875 C-4.69348676 26.84671288 -8.66900418 30.53318294 -12.5625 34.3125 C-13.34753906 35.07175781 -14.13257813 35.83101562 -14.94140625 36.61328125 C-18.10234952 40.27805609 -19.82618558 43.63431529 -20.4375 48.4375 C-19.82066043 53.46033651 -18.28716138 56.97919159 -14.45703125 60.36328125 C-10.73694268 62.8405027 -7.52487141 63.61226818 -3.00708008 62.71826172 C5.57859356 59.64575815 12.046815 51.12664291 18.25 44.75 C20.18684732 42.75977499 22.13038146 40.77643086 24.078125 38.796875 C24.92793945 37.92385742 25.77775391 37.05083984 26.65332031 36.15136719 C29 34 29 34 33 32 C36.3 35.3 39.6 38.6 43 42 C41.35 43.65 39.7 45.3 38 47 C36.98445019 48.17422947 35.98201744 49.3600866 35 50.5625 C32.57257272 53.44429187 29.96083553 55.66249826 27 58 C26.401875 58.763125 25.80375 59.52625 25.1875 60.3125 C18.89992982 68.03722907 8.62655117 77.12220562 -1.61328125 78.30078125 C-10.38033148 78.3388437 -17.09181975 76.61289645 -24 71 C-31.83023833 62.4361447 -35.78615833 55.43301792 -35.4609375 43.625 C-33.98129846 31.98851667 -26.33136412 24.50060132 -18 17 C-17.26007813 16.3296875 -16.52015625 15.659375 -15.7578125 14.96875 C-13.2297339 12.72594097 -10.65513868 10.5457292 -8.05859375 8.3828125 C-4.96991659 5.79064503 -2.2302231 3.41092945 0 0 Z " fill="#1B2D47" transform="translate(185,599)"/>
<path d="M0 0 C3.2539668 1.0846556 3.77784877 1.63440052 5.6875 4.3125 C6.12449219 4.90675781 6.56148437 5.50101563 7.01171875 6.11328125 C8 8 8 8 8 12 C6.61883106 12.94323732 5.22804463 13.87537471 3.79296875 14.734375 C-0.75587166 17.94532117 -4.90473593 22.82228013 -7 28 C-7.3554485 30.77040743 -7.18195905 33.17963465 -7 36 C-5.10295184 38.35893223 -5.10295184 38.35893223 -1.875 38.0625 C6.14806088 36.60676937 12.25815485 27.79765473 17.60546875 22.234375 C22.98846947 17.21141184 26.90501034 16.44883914 34.125 16.65234375 C39.50524859 17.30294446 42.38146695 20.17593432 45.8125 24.0625 C50.10167761 29.82225279 49.56190833 36.07507337 49 43 C46.33189838 53.77913055 38.95467379 64.48174976 29.625 70.54296875 C23.58245798 74 23.58245798 74 21 74 C20.15885829 72.56705502 19.32734313 71.12845595 18.5 69.6875 C18.0359375 68.88699219 17.571875 68.08648438 17.09375 67.26171875 C16 65 16 65 16 62 C17.79296875 60.53515625 17.79296875 60.53515625 20.1875 59.0625 C21.01121094 58.53398438 21.83492187 58.00546875 22.68359375 57.4609375 C23.44800781 56.97882812 24.21242188 56.49671875 25 56 C30.01429361 52.69512466 32.80642017 48.53833586 35 43 C35.48989534 40.0656269 35.36919338 38.00628895 35 35 C34.34 34.34 33.68 33.68 33 33 C28.50898643 33.08473611 26.54770022 33.50098425 23.1875 36.5625 C22.465625 37.366875 21.74375 38.17125 21 39 C20.34 39 19.68 39 19 39 C18.75378906 39.5775 18.50757813 40.155 18.25390625 40.75 C14.73349151 47.0670059 7.83268768 51.83964769 1.1953125 54.44140625 C-3.80755685 55.71437834 -7.61841978 54.73142482 -12.1875 52.3125 C-16.12565975 49.07445753 -19.35341853 45.93974441 -21 41 C-22.02117737 29.0639432 -19.66567489 20.50237568 -12.08203125 11.25 C-8.33039383 7.19569765 -4.20280262 3.57703322 0 0 Z " fill="#1C2E47" transform="translate(695,538)"/>
<path d="M0 0 C0.67354499 1.43429001 1.33859701 2.87257057 2 4.3125 C2.37125 5.11300781 2.7425 5.91351562 3.125 6.73828125 C4 9 4 9 4 12 C1.56568361 13.17374173 -0.87204182 14.33915763 -3.3125 15.5 C-4.34793945 16.00080078 -4.34793945 16.00080078 -5.40429688 16.51171875 C-10.66015625 19 -10.66015625 19 -14 19 C-10.30100856 29.80676303 -6.53976715 40.51288426 -2 51 C-0.55692707 54.41432478 0.8770316 57.83247254 2.3125 61.25 C3.0166667 62.92198469 3.72107268 64.59386863 4.42578125 66.265625 C4.72911377 66.98524414 5.03244629 67.70486328 5.3449707 68.44628906 C5.56113037 68.95901367 5.77729004 69.47173828 6 70 C4.25447527 70.84266711 2.5033792 71.67380038 0.75 72.5 C-0.71179688 73.19609375 -0.71179688 73.19609375 -2.203125 73.90625 C-5 75 -5 75 -9 75 C-13.94469994 64.29804422 -18.69646239 53.60189904 -22.71484375 42.515625 C-24.15595434 38.57337717 -25.72084377 34.69391127 -27.3359375 30.8203125 C-28 29 -28 29 -28 27 C-33.36589971 28.17074175 -37.99348904 29.76657553 -42.921875 32.1953125 C-45 33 -45 33 -49 33 C-50.32 29.7 -51.64 26.4 -53 23 C-42.49738446 17.53288506 -31.68588326 12.89004678 -20.81298828 8.21630859 C-18.21147338 7.09143902 -15.61766346 5.95115537 -13.02734375 4.80078125 C-12.28709961 4.47263428 -11.54685547 4.1444873 -10.78417969 3.80639648 C-9.42034193 3.20054634 -8.05764427 2.59212095 -6.69628906 1.98071289 C-2.22172523 0 -2.22172523 0 0 0 Z " fill="#1C2F48" transform="translate(562,678)"/>
<path d="M0 0 C19.14 0.66 38.28 1.32 58 2 C58 11 58 11 57 14 C50.07 14 43.14 14 36 14 C36.020625 15.8975 36.04125 17.795 36.0625 19.75 C36.09199354 27.60910661 35.83329674 35.45888067 35.5625 43.3125 C35.52326416 44.50391602 35.48402832 45.69533203 35.44360352 46.92285156 C35.19913294 53.65541168 34.7509345 60.30469323 34 67 C29.05 67 24.1 67 19 67 C18.80663423 49.3177744 19.4067851 31.66932949 20 14 C13.07 13.34 6.14 12.68 -1 12 C-0.67 8.04 -0.34 4.08 0 0 Z " fill="#1A2D48" transform="translate(383,712)"/>
<path d="M0 0 C7.05430636 3.19581455 11.99940708 8.03597949 14.8125 15.25 C16.64944506 21.28280864 15.94739404 26.31571687 13.875 32.1875 C10.58473241 37.12290139 5.90346199 41.62710186 0 43 C-6.77705201 43.75300578 -12.48141932 43.25143877 -18 39 C-24.09845026 32.5085385 -26.46404266 26.52051913 -26.23828125 17.64453125 C-25.63519716 10.95128653 -21.88528324 7.66486659 -17.03515625 3.515625 C-11.63060805 -0.50925926 -6.62385896 -1.02938349 0 0 Z " fill="#FCFCFD" transform="translate(616,663)"/>
<path d="M0 0 C0.99 0.495 0.99 0.495 2 1 C-7.4092977 10.58282983 -7.4092977 10.58282983 -11.75 14.1875 C-21.90996514 22.90487374 -30.75858299 33.50120945 -39 44 C-39.53125488 44.6693457 -40.06250977 45.33869141 -40.60986328 46.02832031 C-52.59974435 61.13894603 -62.79171179 76.71898856 -72.47949219 93.38623047 C-73.78353882 95.62790086 -75.09760265 97.863272 -76.4140625 100.09765625 C-83.35833458 112.01987331 -89.1611395 124.50981814 -95 137 C-95.4935498 138.05445313 -95.98709961 139.10890625 -96.49560547 140.1953125 C-101.75787833 151.47186132 -106.83878556 162.78828642 -111.49609375 174.328125 C-113.52581044 179.28379692 -115.72761762 184.1515528 -118 189 C-122.33256057 174.43158934 -110.55317721 153.97454603 -105 141 C-104.35762684 139.47154157 -103.71565024 137.94291635 -103.07421875 136.4140625 C-92.21392569 110.81086033 -78.46038691 86.40246985 -62 64 C-61.51982422 63.34032227 -61.03964844 62.68064453 -60.54492188 62.00097656 C-54.74011293 54.03544669 -48.83803813 46.40344262 -42.05859375 39.234375 C-39.97616579 37.06422504 -39.97616579 37.06422504 -38.34765625 34.703125 C-37.90292969 34.14109375 -37.45820312 33.5790625 -37 33 C-36.34 33 -35.68 33 -35 33 C-34.79246094 32.46761719 -34.58492187 31.93523437 -34.37109375 31.38671875 C-32.4451871 28.03421458 -29.79750632 25.50268304 -27.0625 22.8125 C-26.19286621 21.95084229 -26.19286621 21.95084229 -25.30566406 21.07177734 C-20.14668627 16.02421542 -14.69982566 11.42746639 -9 7 C-7.67162109 5.95779297 -7.67162109 5.95779297 -6.31640625 4.89453125 C-4.21759146 3.25411594 -2.11275849 1.62238985 0 0 Z " fill="#F4F4F5" transform="translate(691,286)"/>
<path d="M0 0 C2.59833503 2.53337666 4.83153285 5.09344489 5.16015625 8.8125 C4.82421748 16.33752853 0.98140898 20.63093273 -4 26 C-4.74636719 26.91652344 -4.74636719 26.91652344 -5.5078125 27.8515625 C-6.00023437 28.23054687 -6.49265625 28.60953125 -7 29 C-11.89933072 28.34333644 -14.47142991 25.043144 -17.8125 21.6875 C-18.42287109 21.10548828 -19.03324219 20.52347656 -19.66210938 19.92382812 C-20.23380859 19.35470703 -20.80550781 18.78558594 -21.39453125 18.19921875 C-21.91893799 17.68190186 -22.44334473 17.16458496 -22.98364258 16.6315918 C-24 15 -24 15 -23.81274414 12.97265625 C-22.50409914 9.7963716 -20.05149044 7.66121831 -17.625 5.3125 C-17.13 4.81427734 -16.635 4.31605469 -16.125 3.80273438 C-11.03278592 -1.21459421 -6.77919278 -1.82658178 0 0 Z " fill="#FCFCFC" transform="translate(670,612)"/>
<path d="M0 0 C12.31145345 2.23844608 12.31145345 2.23844608 16.5625 3.9375 C20.07808085 5.28964648 23.57000943 6.51154708 27.1875 7.5625 C31.55312342 8.83376954 35.76270967 10.35216487 40 12 C40 12.33 40 12.66 40 13 C34.05553777 12.45715734 29.0083601 11.16480648 23.4375 9.0625 C13.49511626 5.27104814 13.49511626 5.27104814 3 4 C3 24.79 3 45.58 3 67 C6.63 67 10.26 67 14 67 C16.09142279 67.22649049 18.17875918 67.50715669 20.25 67.875 C26.511132 68.93608126 32.77697138 69.75715667 39.078125 70.53515625 C42 71 42 71 43 72 C44.485 72.185625 44.485 72.185625 46 72.375 C53.79138545 73.40855113 60.93199074 76.70827938 68 80 C67.67 80.66 67.34 81.32 67 82 C66.41476562 81.76925781 65.82953125 81.53851563 65.2265625 81.30078125 C59.10692189 78.97605291 52.92913437 77.05825045 46.625 75.3125 C45.85236816 75.09827393 45.07973633 74.88404785 44.28369141 74.66333008 C29.31714752 70.5790296 17.05410039 71.03358184 0 70 C0 46.9 0 23.8 0 0 Z " fill="#AD684C" transform="translate(310,230)"/>
<path d="M0 0 C0.66 8.58 1.32 17.16 2 26 C-3.41227315 25.22681812 -7.0196128 24.41479485 -11.9375 22.4375 C-13.08089844 21.98246094 -14.22429687 21.52742187 -15.40234375 21.05859375 C-16.25957031 20.70925781 -17.11679687 20.35992188 -18 20 C-16.48491333 14.58146085 -12.77886332 11.15227126 -9 7.1875 C-8.35804688 6.49462891 -7.71609375 5.80175781 -7.0546875 5.08789062 C-2.26254618 0 -2.26254618 0 0 0 Z " fill="#F9F9FA" transform="translate(320,712)"/>
<path d="M0 0 C46.2 0 92.4 0 140 0 C139.67 0.66 139.34 1.32 139 2 C137.95065781 1.99777939 136.90131561 1.99555878 135.82017517 1.99327087 C125.918392 1.97297599 116.01661307 1.95799728 106.1148138 1.94818783 C101.02453175 1.94297513 95.93426652 1.93590679 90.84399414 1.92456055 C85.92919818 1.91367433 81.01441837 1.90771101 76.09961128 1.90512276 C74.22699288 1.90327884 72.35437534 1.89967816 70.48176384 1.89426994 C67.85362733 1.8869834 65.22555713 1.88601227 62.59741211 1.88647461 C61.82776627 1.88287933 61.05812042 1.87928406 60.26515198 1.87557983 C55.75048892 1.88414209 51.47288458 2.30944641 47 3 C44.33203125 2.84375 44.33203125 2.84375 41.8125 2.5 C37.88834269 2.06010211 34.35204831 2.07681809 30.43359375 2.52734375 C23.93281061 3.12439028 17.73124585 2.70662382 11.25 2.0625 C10.15945313 1.96259766 9.06890625 1.86269531 7.9453125 1.75976562 C5.29586382 1.51573746 2.64768188 1.26239157 0 1 C0 0.67 0 0.34 0 0 Z " fill="#1C2A3E" transform="translate(408,379)"/>
<path d="M0 0 C0 23.1 0 46.2 0 70 C-7.59 70 -15.18 70 -23 70 C-23 69.67 -23 69.34 -23 69 C-16.07 69 -9.14 69 -2 69 C-2.26103516 65.59880859 -2.26103516 65.59880859 -2.52734375 62.12890625 C-3.31275956 50.06844355 -2.86516897 38.00890422 -2.5625 25.9375 C-2.50913471 23.60613415 -2.45639599 21.27475387 -2.40429688 18.94335938 C-2.27674175 13.29538649 -2.14150139 7.64763982 -2 2 C-2.88042969 2.3609375 -3.76085937 2.721875 -4.66796875 3.09375 C-5.82941406 3.5578125 -6.99085938 4.021875 -8.1875 4.5 C-9.33605469 4.9640625 -10.48460937 5.428125 -11.66796875 5.90625 C-14.71990077 6.90805652 -16.83115072 7.23870804 -20 7 C-20 6.34 -20 5.68 -20 5 C-17.23058394 4.16169027 -14.45964931 3.32917966 -11.6875 2.5 C-10.50897461 2.14228516 -10.50897461 2.14228516 -9.30664062 1.77734375 C-8.54931641 1.55175781 -7.79199219 1.32617188 -7.01171875 1.09375 C-6.31522217 0.88427734 -5.61872559 0.67480469 -4.90112305 0.45898438 C-3 0 -3 0 0 0 Z " fill="#B3826D" transform="translate(531,230)"/>
<path d="M0 0 C2.64 0 5.28 0 8 0 C5.28984094 1.8067727 3.54214342 2.56068669 0.484375 3.4453125 C-0.88037964 3.84762085 -0.88037964 3.84762085 -2.27270508 4.25805664 C-3.2552124 4.54414795 -4.23771973 4.83023926 -5.25 5.125 C-16.41414974 8.445072 -27.38487402 12.20409522 -38.36621094 16.07861328 C-44.38922742 18.1856641 -50.4527306 20.17222969 -56.51123047 22.17431641 C-59.37539725 23.12454321 -62.23661331 24.08337805 -65.09765625 25.04296875 C-66.68815796 25.57567383 -66.68815796 25.57567383 -68.31079102 26.11914062 C-70.37543937 26.81078123 -72.43975232 27.50342421 -74.50366211 28.19726562 C-79.93131373 30.01241768 -85.3724006 31.74579773 -90.86279297 33.36181641 C-93.59688015 34.1782322 -96.30042166 35.07646004 -99 36 C-99.66 35.34 -100.32 34.68 -101 34 C-100.45255127 33.81824219 -99.90510254 33.63648438 -99.34106445 33.44921875 C-95.42438249 32.14658068 -91.51082218 30.83625128 -87.60546875 29.5 C-77.51299239 26.06304179 -67.4777596 23.05040538 -57 21 C-57 20.34 -57 19.68 -57 19 C-56.10796875 18.79503906 -55.2159375 18.59007812 -54.296875 18.37890625 C-53.12640625 18.10949219 -51.9559375 17.84007812 -50.75 17.5625 C-49.58984375 17.29566406 -48.4296875 17.02882812 -47.234375 16.75390625 C-44.81650239 16.19032 -42.40556696 15.61330049 -40 15 C-40 14.34 -40 13.68 -40 13 C-39.05640625 12.76925781 -38.1128125 12.53851563 -37.140625 12.30078125 C-29.66614442 10.42042108 -22.67146361 8.19232664 -15.5859375 5.10546875 C-10.35461244 2.8691168 -5.75736567 1.71915289 0 2 C0 1.34 0 0.68 0 0 Z " fill="#B26F54" transform="translate(548,209)"/>
<path d="M0 0 C12.31145345 2.23844608 12.31145345 2.23844608 16.5625 3.9375 C20.07808085 5.28964648 23.57000943 6.51154708 27.1875 7.5625 C31.55312342 8.83376954 35.76270967 10.35216487 40 12 C40 12.33 40 12.66 40 13 C34.05553777 12.45715734 29.0083601 11.16480648 23.4375 9.0625 C13.49771351 5.09112174 13.49771351 5.09112174 3 4 C2.13135302 7.77035832 1.85070072 11.30165047 1.79467773 15.16723633 C1.77473251 16.38812454 1.75478729 17.60901276 1.73423767 18.86689758 C1.71752518 20.17539169 1.70081268 21.4838858 1.68359375 22.83203125 C1.6630042 24.19252628 1.64200722 25.55301519 1.62062073 26.91349792 C1.56560653 30.48248323 1.51610683 34.05152427 1.46777344 37.62060547 C1.41740694 41.26730266 1.3618002 44.91391959 1.30664062 48.56054688 C1.19931196 55.70696151 1.09781157 62.85344825 1 70 C0.67 70 0.34 70 0 70 C0 46.9 0 23.8 0 0 Z " fill="#BE8D7A" transform="translate(310,230)"/>
<path d="M0 0 C5.87751537 1.21541658 11.56933943 2.70021063 17.26953125 4.57421875 C18.02495209 4.81905502 18.78037292 5.0638913 19.5586853 5.31614685 C21.97815685 6.10198055 24.39545115 6.89424879 26.8125 7.6875 C28.47630672 8.23099266 30.14012513 8.77444956 31.80395508 9.31787109 C40.61555377 12.20194413 49.42259813 15.10154941 58.1875 18.125 C58.98067627 18.39530029 59.77385254 18.66560059 60.59106445 18.9440918 C65.75859499 20.75859499 65.75859499 20.75859499 68 23 C66.5437455 23.67119549 65.08492133 24.33681807 63.625 25 C62.81289063 25.37125 62.00078125 25.7425 61.1640625 26.125 C59 27 59 27 57 27 C57.495 25.515 57.495 25.515 58 24 C59.32 24 60.64 24 62 24 C61.09482898 21.62781767 61.09482898 21.62781767 57.83203125 20.78125 C56.49463506 20.3465629 55.15463862 19.91981587 53.8125 19.5 C53.15185547 19.28730469 52.49121094 19.07460937 51.81054688 18.85546875 C50.49772692 18.43298177 49.18400865 18.01327549 47.86938477 17.59643555 C45.23761442 16.75675748 42.61956658 15.87688881 40 15 C39.30777344 14.77699219 38.61554687 14.55398437 37.90234375 14.32421875 C33.40920293 12.86819101 29.01822769 11.23540311 24.625 9.5 C18.82835253 7.24499578 13.02109604 5.53159836 7 4 C4.66241717 3.34727181 2.33167583 2.67359524 0 2 C0 1.34 0 0.68 0 0 Z " fill="#AE6C51" transform="translate(551,165)"/>
<path d="M0 0 C0.67224609 -0.01224609 1.34449219 -0.02449219 2.03710938 -0.03710938 C5.73628237 -0.04812975 7.27721933 0.08064622 10.4375 2.1875 C9.74011719 2.17847656 9.04273438 2.16945313 8.32421875 2.16015625 C-14.7965339 2.809457 -37.82957631 11.49391559 -57.5625 23.1875 C-57.5625 22.1975 -57.5625 21.2075 -57.5625 20.1875 C-56.5725 20.1875 -55.5825 20.1875 -54.5625 20.1875 C-54.5625 19.5275 -54.5625 18.8675 -54.5625 18.1875 C-53.31789217 17.51082002 -52.06653104 16.84655281 -50.8125 16.1875 C-49.76835937 15.630625 -49.76835937 15.630625 -48.703125 15.0625 C-46.5625 14.1875 -46.5625 14.1875 -42.5625 14.1875 C-42.2325 13.1975 -41.9025 12.2075 -41.5625 11.1875 C-38.71875 9.87109375 -38.71875 9.87109375 -35.0625 8.625 C-34.42755615 8.40666504 -33.7926123 8.18833008 -33.13842773 7.96337891 C-28.97300248 6.56239186 -24.83034063 5.49291035 -20.5234375 4.65234375 C-17.34920692 3.8998867 -14.53184102 2.52661458 -11.5625 1.1875 C-7.75590294 -0.08710716 -3.98741145 0.01948881 0 0 Z " fill="#AF6B4F" transform="translate(500.5625,298.8125)"/>
<path d="M0 0 C3.4375 0.8125 3.4375 0.8125 7 2 C7.33 2.99 7.66 3.98 8 5 C8.804375 5 9.60875 5 10.4375 5 C15.00505798 6.28212154 17.27200535 8.65704631 20.69140625 11.8515625 C22.8391785 13.85033532 25.01440849 15.73943299 27.3125 17.5625 C28.23482422 18.30693359 28.23482422 18.30693359 29.17578125 19.06640625 C30.97447567 20.1966781 30.97447567 20.1966781 33.10546875 19.77734375 C35.19478425 19.06239201 35.19478425 19.06239201 37 17 C37.99 17 38.98 17 40 17 C40.20625 16.4225 40.4125 15.845 40.625 15.25 C42.51625222 12.15522364 44.90035937 10.8081237 48 9 C48.66 9 49.32 9 50 9 C50 8.34 50 7.68 50 7 C51.32 7.33 52.64 7.66 54 8 C52.98292969 8.72703125 52.98292969 8.72703125 51.9453125 9.46875 C45.4733126 14.13002417 39.1805087 18.95906449 33 24 C29.30238913 22.41530963 26.68847557 20.08981451 23.6875 17.4375 C16.51597838 11.2558984 8.46767974 6.23383987 0 2 C0 1.34 0 0.68 0 0 Z " fill="#AC6950" transform="translate(388,315)"/>
<path d="M0 0 C4.98770821 0.42268714 9.28723333 1.2327125 14 3 C14 3.66 14 4.32 14 5 C14.67417969 5.12246094 15.34835937 5.24492187 16.04296875 5.37109375 C19.51972372 6.11053569 22.89855058 7.07341185 26.3125 8.0625 C28.19388672 8.60583984 28.19388672 8.60583984 30.11328125 9.16015625 C31.06589844 9.43730469 32.01851563 9.71445313 33 10 C32.67 10.66 32.34 11.32 32 12 C21.09074866 9.57572193 10.55510092 5.67133945 0 2 C0 19.49 0 36.98 0 55 C-0.33 55 -0.66 55 -1 55 C-1.02526605 47.32788798 -1.04283123 39.6557866 -1.05493164 31.98364258 C-1.05997377 29.37133381 -1.06680725 26.75902789 -1.07543945 24.14672852 C-1.08751036 20.40119732 -1.09322935 16.65570328 -1.09765625 12.91015625 C-1.10281754 11.73413345 -1.10797882 10.55811066 -1.11329651 9.34645081 C-1.11340981 7.72488319 -1.11340981 7.72488319 -1.11352539 6.07055664 C-1.115746 5.11347305 -1.11796661 4.15638947 -1.12025452 3.17030334 C-1 1 -1 1 0 0 Z " fill="#AA6D55" transform="translate(274,204)"/>
<path d="M0 0 C6.90352555 -0.51137226 11.74827614 1.13035626 18 4 C18 4.66 18 5.32 18 6 C18.66 6 19.32 6 20 6 C20.02945031 9.31248078 20.04694801 12.62492711 20.0625 15.9375 C20.07087891 16.86369141 20.07925781 17.78988281 20.08789062 18.74414062 C20.10837786 24.58300303 19.75429787 30.20913053 19 36 C19.66 36 20.32 36 21 36 C20.90912109 36.89525391 20.90912109 36.89525391 20.81640625 37.80859375 C19.9744327 46.52625839 19.48175403 55.25667689 19 64 C18.01 64 17.02 64 16 64 C16.33 63.34 16.66 62.68 17 62 C17.09072287 60.2433077 17.11754144 58.4831499 17.11352539 56.72412109 C17.11341209 55.07263565 17.11341209 55.07263565 17.11329651 53.38778687 C17.10813522 52.19505157 17.10297394 51.00231628 17.09765625 49.7734375 C17.0962413 48.55548492 17.09482635 47.33753235 17.09336853 46.08267212 C17.08775639 42.1800901 17.07520179 38.27756477 17.0625 34.375 C17.05748657 31.73437583 17.05292339 29.09375076 17.04882812 26.453125 C17.03778301 19.96873055 17.02103302 13.48436932 17 7 C15.4201595 6.35718658 13.83921264 5.71709189 12.2578125 5.078125 C10.93740967 4.54300293 10.93740967 4.54300293 9.59033203 3.99707031 C6.42894558 2.7801898 3.27582264 1.85456243 0 1 C0 0.67 0 0.34 0 0 Z " fill="#AF6346" transform="translate(246,196)"/>
<path d="M0 0 C1.64136861 2.9976987 2.54276746 5.80258418 3.2890625 9.1328125 C3.50820313 10.10347656 3.72734375 11.07414062 3.953125 12.07421875 C4.17484375 13.08097656 4.3965625 14.08773438 4.625 15.125 C4.96917969 16.64673828 4.96917969 16.64673828 5.3203125 18.19921875 C7 25.7078218 7 25.7078218 7 28 C-2.44518656 32.12153595 -13.98808573 32.44385309 -24 30 C-24 29.34 -24 28.68 -24 28 C-22.72125 28.02320313 -21.4425 28.04640625 -20.125 28.0703125 C-18.41667255 28.08908533 -16.70833873 28.10728389 -15 28.125 C-14.16082031 28.14175781 -13.32164062 28.15851563 -12.45703125 28.17578125 C-6.94745123 28.21849117 -2.28951708 27.55502007 3 26 C2.60492798 21.02001324 2.11934984 16.17400997 0.9375 11.3125 C0.00411206 7.42684057 -0.16965662 3.98693058 0 0 Z " fill="#B16C51" transform="translate(279,300)"/>
<path d="M0 0 C1.4540625 0.0309375 1.4540625 0.0309375 2.9375 0.0625 C1.9475 1.5475 1.9475 1.5475 0.9375 3.0625 C-0.3825 3.0625 -1.7025 3.0625 -3.0625 3.0625 C-3.0625 30.4525 -3.0625 57.8425 -3.0625 86.0625 C-3.3925 86.0625 -3.7225 86.0625 -4.0625 86.0625 C-4.08562283 74.99715142 -4.10341478 63.93180855 -4.11431217 52.86644077 C-4.11954113 47.72890434 -4.12663901 42.59138437 -4.13793945 37.45385742 C-4.14876787 32.5001859 -4.15477674 27.54653026 -4.15737724 22.59284782 C-4.15923157 20.69852384 -4.16285234 18.80420076 -4.16823006 16.9098835 C-4.17543989 14.26615614 -4.17649097 11.62249529 -4.17602539 8.97875977 C-4.17962067 8.18754227 -4.18321594 7.39632477 -4.18692017 6.58113098 C-4.17445853 0.08519303 -4.17445853 0.08519303 0 0 Z " fill="#0F1E33" transform="translate(394.0625,379.9375)"/>
<path d="M0 0 C-3.90314893 2.1729932 -8.08398516 3.4338201 -12.3125 4.8125 C-13.93230649 5.34630919 -15.55209792 5.88016408 -17.171875 6.4140625 C-17.98205078 6.67993164 -18.79222656 6.94580078 -19.62695312 7.21972656 C-23.10913626 8.3646913 -26.58587558 9.52578884 -30.0625 10.6875 C-33.2915026 11.76498536 -36.52045409 12.84219199 -39.75390625 13.90625 C-42.74837876 14.89289663 -45.67389334 15.85683122 -48.5625 17.125 C-52.01074434 18.3628313 -55.35753928 18.62958027 -59 19 C-56.50195105 16.50195105 -54.44460409 15.99654877 -51.0859375 14.8984375 C-49.86044189 14.49407471 -48.63494629 14.08971191 -47.37231445 13.6730957 C-46.03996419 13.2401266 -44.7075241 12.80743381 -43.375 12.375 C-41.33572918 11.70744511 -39.2969635 11.03836203 -37.25819397 10.36927795 C-35.87509849 9.91564584 -34.49174448 9.46280125 -33.10813904 9.01072693 C-28.65173296 7.55240337 -24.21086961 6.0542068 -19.77734375 4.52734375 C-18.68180176 4.1523877 -17.58625977 3.77743164 -16.45751953 3.39111328 C-14.39504915 2.68377015 -12.33473026 1.97011545 -10.27685547 1.24951172 C-9.35662598 0.93643066 -8.43639648 0.62334961 -7.48828125 0.30078125 C-6.68946533 0.02403564 -5.89064941 -0.25270996 -5.06762695 -0.5378418 C-3 -1 -3 -1 0 0 Z " fill="#AF6C52" transform="translate(372,139)"/>
<path d="M0 0 C0.33 0.99 0.66 1.98 1 3 C0.01 3.33 -0.98 3.66 -2 4 C-1.67 7.3 -1.34 10.6 -1 14 C-0.01 14.33 0.98 14.66 2 15 C1.01 15.495 1.01 15.495 0 16 C1.0828125 17.423125 1.0828125 17.423125 2.1875 18.875 C3.7333801 21.49814846 4.05419157 22.63749525 3.59765625 25.69140625 C2.82962082 28.17955788 1.9885855 30.59153433 1 33 C-1.20652319 29.27545522 -0.71693853 27.17241614 -0.03125 22.94140625 C0.01877572 19.83355854 -2.04928005 18.29496465 -4 16 C-5.35516675 11.75735378 -5.30445345 8.78288029 -3.6875 4.625 C-2 2 -2 2 0 0 Z " fill="#AC6247" transform="translate(260,261)"/>
<path d="M0 0 C5.75 0.875 5.75 0.875 8 2 C9.37342831 2.0689472 10.75002102 2.08467708 12.125 2.0625 C13.40375 2.041875 14.6825 2.02125 16 2 C16.33 2.66 16.66 3.32 17 4 C21.39851205 5.87344032 25.74308579 7.21044202 30.375 8.375 C36.00098825 9.84641231 40.91715236 12.21049793 46 15 C42.50336727 16.74831636 38.74257828 14.52548795 35.1953125 13.359375 C33.88202469 12.93510223 33.88202469 12.93510223 32.54220581 12.5022583 C30.68660704 11.90053293 28.83223503 11.29501351 26.97900391 10.68603516 C24.14708936 9.75724471 21.31032585 8.84462726 18.47265625 7.93359375 C16.67155842 7.34732586 14.87076667 6.76011663 13.0703125 6.171875 C12.22228058 5.89986267 11.37424866 5.62785034 10.5005188 5.34759521 C6.52231386 4.02864084 3.16266796 2.87280163 0 0 Z " fill="#B47359" transform="translate(366,235)"/>
<path d="M0 0 C9.24344938 1.41164468 17.93606252 4.49371073 26.75 7.5 C28.24329893 8.00447096 29.73678743 8.50838113 31.23046875 9.01171875 C33.9709132 9.93599849 36.71022271 10.86348413 39.44824219 11.79492188 C42.62868821 12.87401739 45.81272903 13.94126105 49 15 C49 15.33 49 15.66 49 16 C44.94600729 16.42673608 42.1356894 15.76978886 38.46875 14.1875 C33.0380482 11.94846546 27.53307207 10.30755917 21.875 8.75 C20.91851562 8.481875 19.96203125 8.21375 18.9765625 7.9375 C16.65236923 7.28672588 14.32691057 6.64097619 12 6 C12 5.34 12 4.68 12 4 C11.38511719 3.96261719 10.77023437 3.92523438 10.13671875 3.88671875 C9.32847656 3.82097656 8.52023437 3.75523437 7.6875 3.6875 C6.88699219 3.62949219 6.08648437 3.57148438 5.26171875 3.51171875 C2.60627758 2.91091945 1.81088904 1.9566713 0 0 Z " fill="#AE6B52" transform="translate(429,125)"/>
<path d="M0 0 C-0.33 0.66 -0.66 1.32 -1 2 C-3.27399754 2.60076256 -5.55130576 2.9563154 -7.87109375 3.33984375 C-10.36790025 3.86888679 -10.36790025 3.86888679 -12 7 C-9.69 7.33 -7.38 7.66 -5 8 C-5.33 8.99 -5.66 9.98 -6 11 C-7.9606842 10.38241446 -9.91849063 9.75568655 -11.875 9.125 C-12.96554688 8.77695313 -14.05609375 8.42890625 -15.1796875 8.0703125 C-18 7 -18 7 -20 5 C-17.2328864 3.96794141 -14.46208746 2.94909171 -11.6875 1.9375 C-10.90181641 1.64294922 -10.11613281 1.34839844 -9.30664062 1.04492188 C-8.54931641 0.77099609 -7.79199219 0.49707031 -7.01171875 0.21484375 C-6.31522217 -0.04176025 -5.61872559 -0.29836426 -4.90112305 -0.56274414 C-3 -1 -3 -1 0 0 Z " fill="#B37156" transform="translate(241,182)"/>
<path d="M0 0 C0.66 0.33 1.32 0.66 2 1 C2.40214229 7.16618181 0.96818336 12.17745757 -1 18 C-1.66 18 -2.32 18 -3 18 C-3 21.96 -3 25.92 -3 30 C-3.99 30 -4.98 30 -6 30 C-5.38627074 23.12199963 -4.10103248 16.6335677 -2.4375 9.9375 C-2.20353516 8.97650391 -1.96957031 8.01550781 -1.72851562 7.02539062 C-1.15732057 4.68232518 -0.58107577 2.34063082 0 0 Z " fill="#AC684E" transform="translate(257,298)"/>
<path d="M0 0 C-3.94443507 2.16004778 -8.14729351 3.56972735 -12.375 5.0625 C-13.1175 5.33126953 -13.86 5.60003906 -14.625 5.87695312 C-22.19127706 8.55723325 -27.26077385 9.26839387 -35 7 C-35 6.67 -35 6.34 -35 6 C-34.2471875 5.98582031 -33.494375 5.97164062 -32.71875 5.95703125 C-25.15985076 5.61761466 -18.64177378 4.23640946 -11.55859375 1.7277832 C-7.55586116 0.33968983 -4.23412559 -0.2552255 0 0 Z " fill="#AE684C" transform="translate(447,245)"/>
<path d="M0 0 C0 0.99 0 1.98 0 3 C-12.11552029 7.52312758 -18.91887469 7.97458101 -31 3 C-30.67 2.34 -30.34 1.68 -30 1 C-28.96552734 1.34224609 -28.96552734 1.34224609 -27.91015625 1.69140625 C-17.47184363 4.88447033 -10.19456201 3.38399866 0 0 Z " fill="#AF6A4F" transform="translate(437,260)"/>
<path d="M0 0 C-2.36823441 2.36823441 -4.09523283 2.84690435 -7.26953125 3.875 C-8.32333984 4.22046875 -9.37714844 4.5659375 -10.46289062 4.921875 C-11.56826172 5.27765625 -12.67363281 5.6334375 -13.8125 6 C-15.98610179 6.70702899 -18.15929402 7.41531861 -20.33203125 8.125 C-21.29858643 8.43695313 -22.2651416 8.74890625 -23.26098633 9.0703125 C-25.08551886 9.68960298 -26.88962475 10.37269274 -28.66674805 11.1171875 C-31 12 -31 12 -34 12 C-34 11.34 -34 10.68 -34 10 C-29.91321029 7.27547352 -25.52489978 6.57506614 -20.8046875 5.5 C-17.38232875 4.69176768 -14.95739488 3.97159659 -12 2 C-7.88686057 0.62895352 -4.34260182 -0.26318799 0 0 Z " fill="#AD684E" transform="translate(590,197)"/>
<path d="M0 0 C-1.65 1.65 -3.3 3.3 -5 5 C-5 4.34 -5 3.68 -5 3 C-5.969375 3.474375 -6.93875 3.94875 -7.9375 4.4375 C-12.19836149 6.28852999 -16.40015606 6.69751593 -21 7 C-21 7.66 -21 8.32 -21 9 C-23.31 9.33 -25.62 9.66 -28 10 C-28 9.34 -28 8.68 -28 8 C-27.37432129 7.79318604 -26.74864258 7.58637207 -26.10400391 7.37329102 C-23.27714946 6.43792318 -20.45106812 5.50024079 -17.625 4.5625 C-16.64015625 4.23701172 -15.6553125 3.91152344 -14.640625 3.57617188 C-13.69960938 3.26357422 -12.75859375 2.95097656 -11.7890625 2.62890625 C-10.91975098 2.34088135 -10.05043945 2.05285645 -9.15478516 1.75610352 C-5.74341407 0.55907018 -3.69929176 -0.09734978 0 0 Z " fill="#B17055" transform="translate(509,237)"/>
<path d="M0 0 C6.90352555 -0.51137226 11.74827614 1.13035626 18 4 C18 4.66 18 5.32 18 6 C18.66 6 19.32 6 20 6 C19.67 11.28 19.34 16.56 19 22 C18.67 22 18.34 22 18 22 C17.67 17.05 17.34 12.1 17 7 C11.37175314 4.68702184 5.88697124 2.53573163 0 1 C0 0.67 0 0.34 0 0 Z " fill="#AD6447" transform="translate(246,196)"/>
<path d="M0 0 C0.66 0.33 1.32 0.66 2 1 C-4.27 7.27 -10.54 13.54 -17 20 C-17.66 19.67 -18.32 19.34 -19 19 C-13.0763504 12.14630879 -6.85369121 5.9236496 0 0 Z " fill="#213044" transform="translate(173,611)"/>
<path d="M0 0 C-3.87084607 1.29028202 -7.26187908 0.97748711 -11.30859375 0.83984375 C-14.12579053 1.00748536 -15.60007607 1.57974264 -18 3 C-22.41145281 5.09544008 -22.41145281 5.09544008 -25.3125 4.625 C-25.869375 4.41875 -26.42625 4.2125 -27 4 C-19.10255608 -1.26496261 -8.87242773 -4.30178314 0 0 Z " fill="#AC6A51" transform="translate(429,124)"/>
<path d="M0 0 C0 0.66 0 1.32 0 2 C-22.42424242 11.85858586 -22.42424242 11.85858586 -28 10 C-26.35 9.67 -24.7 9.34 -23 9 C-23 8.34 -23 7.68 -23 7 C-22.10796875 6.79503906 -21.2159375 6.59007812 -20.296875 6.37890625 C-19.12640625 6.10949219 -17.9559375 5.84007812 -16.75 5.5625 C-15.58984375 5.29566406 -14.4296875 5.02882812 -13.234375 4.75390625 C-10.81650239 4.19032 -8.40556696 3.61330049 -6 3 C-6 2.34 -6 1.68 -6 1 C-3.92446352 0.4465236 -2.15634036 0 0 0 Z " fill="#A8664C" transform="translate(514,221)"/>
<path d="M0 0 C6.2524605 0.3410433 11.99928275 1.67206833 18 3.375 C18.76626709 3.58406982 19.53253418 3.79313965 20.32202148 4.00854492 C22.24638144 4.57392408 24.12896328 5.27747912 26 6 C26.33 6.99 26.66 7.98 27 9 C17.90425874 6.62971149 8.95607231 3.84301919 0 1 C0 0.67 0 0.34 0 0 Z " fill="#B27259" transform="translate(336,226)"/>
<path d="M0 0 C5.75 0.875 5.75 0.875 8 2 C9.37342831 2.0689472 10.75002102 2.08467708 12.125 2.0625 C13.40375 2.041875 14.6825 2.02125 16 2 C16.33 2.66 16.66 3.32 17 4 C18.64142963 5.0409066 20.30712215 6.04504326 22 7 C20 8 20 8 18.15234375 7.59448242 C17.05599609 7.22867065 17.05599609 7.22867065 15.9375 6.85546875 C15.14085937 6.59056641 14.34421875 6.32566406 13.5234375 6.05273438 C12.69070313 5.76720703 11.85796875 5.48167969 11 5.1875 C10.16726563 4.91357422 9.33453125 4.63964844 8.4765625 4.35742188 C2.26013049 2.26013049 2.26013049 2.26013049 0 0 Z " fill="#AB6447" transform="translate(366,235)"/>
<path d="M0 0 C0.99 0.33 1.98 0.66 3 1 C-1.29 5.29 -5.58 9.58 -10 14 C-10.66 13.34 -11.32 12.68 -12 12 C-11.38511719 11.46890625 -10.77023437 10.9378125 -10.13671875 10.390625 C-9.32847656 9.68421875 -8.52023437 8.9778125 -7.6875 8.25 C-6.48673828 7.20585938 -6.48673828 7.20585938 -5.26171875 6.140625 C-3.22034399 4.20854665 -1.60107149 2.30056874 0 0 Z " fill="#26364C" transform="translate(694,690)"/>
<path d="M0 0 C7.38778946 -0.47156103 13.47571106 1.61267166 20 5 C19.34 5.66 18.68 6.32 18 7 C12.06 5.02 6.12 3.04 0 1 C0 0.67 0 0.34 0 0 Z " fill="#B47157" transform="translate(310,217)"/>
<path d="M0 0 C2 0 2 0 3.5625 1.5 C5.85750616 5.49131507 6.64158271 9.59060306 5.45703125 14.0390625 C3.55951613 18.72024194 3.55951613 18.72024194 1 20 C1 19.01 1 18.02 1 17 C1.66 17 2.32 17 3 17 C3.34548714 10.66606918 2.29342747 5.89738492 0 0 Z " fill="#B17159" transform="translate(276,261)"/>
<path d="M0 0 C-4.51368168 3.81926912 -9.09749318 5.34720628 -15 5 C-15 4.34 -15 3.68 -15 3 C-13.06643218 2.30151736 -11.12797702 1.61655186 -9.1875 0.9375 C-8.10855469 0.55464844 -7.02960937 0.17179688 -5.91796875 -0.22265625 C-3 -1 -3 -1 0 0 Z " fill="#B26F54" transform="translate(526,232)"/>
<path d="M0 0 C0.66 0 1.32 0 2 0 C0.38989473 4.07376031 -2.53822271 6.76507069 -5.625 9.75 C-6.140625 10.25660156 -6.65625 10.76320313 -7.1875 11.28515625 C-8.45383339 12.52803902 -9.7263144 13.76465276 -11 15 C-11.66 14.67 -12.32 14.34 -13 14 C-12.56429687 13.57589844 -12.12859375 13.15179687 -11.6796875 12.71484375 C-7.97374845 9.06505529 -4.51738517 5.34358974 -1.26171875 1.28515625 C-0.84535156 0.86105469 -0.42898438 0.43695312 0 0 Z " fill="#2A394D" transform="translate(570,540)"/>
<path d="M0 0 C4.96916636 0.51405169 9.29026351 1.23384882 14 3 C13.67 3.66 13.34 4.32 13 5 C8.71 4.34 4.42 3.68 0 3 C0 2.01 0 1.02 0 0 Z " fill="#B16546" transform="translate(274,204)"/>
<path d="M0 0 C1.99954746 -0.04254356 4.00041636 -0.04080783 6 0 C6.33 0.33 6.66 0.66 7 1 C9.52596259 1.23653523 12.03107207 1.42173692 14.5625 1.5625 C15.27341797 1.60568359 15.98433594 1.64886719 16.71679688 1.69335938 C18.47761912 1.79971777 20.2387832 1.90038846 22 2 C22 2.33 22 2.66 22 3 C19.27076612 3.0270817 16.54180363 3.04687847 13.8125 3.0625 C13.04357422 3.07087891 12.27464844 3.07925781 11.48242188 3.08789062 C7.51473211 3.10491934 3.87428766 2.98604115 0 2 C0 1.34 0 0.68 0 0 Z " fill="#AB6E56" transform="translate(255,328)"/>
<path d="M0 0 C5.61 0 11.22 0 17 0 C13.27422909 2.48384727 10.32515775 3.41475787 5.83203125 2.61328125 C3.87503251 2.12489749 1.93558832 1.56732761 0 1 C0 0.67 0 0.34 0 0 Z " fill="#BA7B62" transform="translate(412,251)"/>
<path d="M0 0 C0.33 0 0.66 0 1 0 C1.36504603 1.58086048 1.71660506 3.16483907 2.0625 4.75 C2.25972656 5.63171875 2.45695312 6.5134375 2.66015625 7.421875 C2.99825872 9.98679028 2.81158635 11.57091639 2 14 C0.5 12.9375 0.5 12.9375 -1 11 C-1.2804701 7.14353614 -1.18234854 3.69483919 0 0 Z " fill="#BD856F" transform="translate(276,282)"/>
<path d="M0 0 C0.33 0.99 0.66 1.98 1 3 C0.01 3.33 -0.98 3.66 -2 4 C-2 6.64 -2 9.28 -2 12 C-2.99 12.33 -3.98 12.66 -5 13 C-4.61271765 7.28758534 -4.12989477 4.26311718 0 0 Z " fill="#B1755E" transform="translate(260,261)"/>
<path d="M0 0 C5.52706913 0.72724594 10.69960141 2.33445973 16 4 C14.14453125 5.046875 14.14453125 5.046875 12 6 C9.6875 5.25 9.6875 5.25 7 4 C4.67251306 3.31320058 2.34013344 2.64238957 0 2 C0 1.34 0 0.68 0 0 Z " fill="#B06D54" transform="translate(478,141)"/>
<path d="M0 0 C0.33 0.66 0.66 1.32 1 2 C-4.25432063 4.45946923 -9.30860098 5.90301833 -15 7 C-15 6.34 -15 5.68 -15 5 C-10.05 3.35 -5.1 1.7 0 0 Z " fill="#B4735A" transform="translate(454,254)"/>
<path d="M0 0 C-1.76858691 0.67260351 -3.53996016 1.33788395 -5.3125 2 C-6.79169922 2.556875 -6.79169922 2.556875 -8.30078125 3.125 C-11 4 -11 4 -14 4 C-14 3.34 -14 2.68 -14 2 C-12.42085985 1.46658816 -10.83645613 0.94874237 -9.25 0.4375 C-8.36828125 0.14746094 -7.4865625 -0.14257812 -6.578125 -0.44140625 C-3.92165684 -1.01697435 -2.52968894 -0.89248371 0 0 Z " fill="#AD654A" transform="translate(605,193)"/>
<path d="M0 0 C2.31 0.33 4.62 0.66 7 1 C4.22920113 4.80984844 0.37131855 5.06840752 -4 6 C-3.67 5.01 -3.34 4.02 -3 3 C-1.68 3 -0.36 3 1 3 C0.67 2.01 0.34 1.02 0 0 Z " fill="#AF765F" transform="translate(612,186)"/>
<path d="M0 0 C0 0.99 0 1.98 0 3 C-4.50353262 4.75747614 -8.17639811 5.19294408 -13 5 C-10.14415227 3.09610151 -8.0688238 2.30537823 -4.8125 1.375 C-3.91144531 1.11460937 -3.01039063 0.85421875 -2.08203125 0.5859375 C-1.39496094 0.39257812 -0.70789063 0.19921875 0 0 Z " fill="#B47055" transform="translate(437,260)"/>
<path d="M0 0 C1.4540625 0.0309375 1.4540625 0.0309375 2.9375 0.0625 C1.9475 1.5475 1.9475 1.5475 0.9375 3.0625 C-0.3825 3.0625 -1.7025 3.0625 -3.0625 3.0625 C-3.0625 5.7025 -3.0625 8.3425 -3.0625 11.0625 C-3.3925 11.0625 -3.7225 11.0625 -4.0625 11.0625 C-4.08938151 9.41675434 -4.10884123 7.77088587 -4.125 6.125 C-4.13660156 5.20847656 -4.14820313 4.29195313 -4.16015625 3.34765625 C-4.00919455 -0.18484756 -3.60673121 0.07360676 0 0 Z " fill="#142439" transform="translate(394.0625,379.9375)"/>
<path d="M0 0 C2.31 0.33 4.62 0.66 7 1 C7 1.66 7 2.32 7 3 C5.35 3.33 3.7 3.66 2 4 C1.67 5.65 1.34 7.3 1 9 C0.67 9 0.34 9 0 9 C0 6.03 0 3.06 0 0 Z " fill="#B36F53" transform="translate(311,230)"/>
<path d="M0 0 C0.66 0 1.32 0 2 0 C1.34 2.64 0.68 5.28 0 8 C0.66 8.33 1.32 8.66 2 9 C0.68 10.32 -0.64 11.64 -2 13 C-1.85769192 11.58297487 -1.71099254 10.1663904 -1.5625 8.75 C-1.48128906 7.96109375 -1.40007813 7.1721875 -1.31640625 6.359375 C-1.02365007 4.17635361 -0.57935581 2.1226818 0 0 Z " fill="#182535" transform="translate(556,506)"/>
<path d="M0 0 C4.92127034 -0.16682272 8.50343896 -0.24828052 13 2 C10 4 10 4 7.51953125 3.5390625 C6.62621094 3.23742187 5.73289063 2.93578125 4.8125 2.625 C3.91144531 2.32851562 3.01039063 2.03203125 2.08203125 1.7265625 C1.39496094 1.48679688 0.70789063 1.24703125 0 1 C0 0.67 0 0.34 0 0 Z " fill="#BA7960" transform="translate(246,196)"/>
<path d="M0 0 C0 0.99 0 1.98 0 3 C-6.625 6 -6.625 6 -10 6 C-10 5.34 -10 4.68 -10 4 C-6.7 2.68 -3.4 1.36 0 0 Z " fill="#AF694D" transform="translate(284,166)"/>
<path d="M0 0 C-5.12325529 2.45489316 -9.33895411 3.50341703 -15 4 C-12.83900627 1.83900627 -11.4789582 1.28436284 -8.625 0.3125 C-7.46871094 -0.09548828 -7.46871094 -0.09548828 -6.2890625 -0.51171875 C-3.79944692 -1.04278009 -2.38446982 -0.81115526 0 0 Z " fill="#A86348" transform="translate(328,154)"/>
<path d="M0 0 C3.11547441 0.67883043 5.85137721 1.74106902 8.75 3.0625 C9.54921875 3.42472656 10.3484375 3.78695312 11.171875 4.16015625 C11.77515625 4.43730469 12.3784375 4.71445313 13 5 C11 6 11 6 8.3984375 5.22265625 C6.90183594 4.64837891 6.90183594 4.64837891 5.375 4.0625 C4.37210937 3.68222656 3.36921875 3.30195313 2.3359375 2.91015625 C1.56507813 2.60980469 0.79421875 2.30945313 0 2 C0 1.34 0 0.68 0 0 Z " fill="#AF694D" transform="translate(399,245)"/>
<path d="M0 0 C-0.33 0.33 -0.66 0.66 -1 1 C-0.01 1.66 0.98 2.32 2 3 C-5.42857143 3.28571429 -5.42857143 3.28571429 -9 1 C-3.375 -1.125 -3.375 -1.125 0 0 Z " fill="#1C2735" transform="translate(566,222)"/>
<path d="M0 0 C0.66 0.33 1.32 0.66 2 1 C0.90653119 2.34212062 -0.2001575 3.67347975 -1.3125 5 C-2.23482422 6.11375 -2.23482422 6.11375 -3.17578125 7.25 C-5 9 -5 9 -8 9 C-5.36 6.03 -2.72 3.06 0 0 Z " fill="#2C3A4B" transform="translate(315,695)"/>
<path d="M0 0 C-2.49505962 2.49505962 -3.67328888 2.35948376 -7.125 2.625 C-8.03507812 2.69976562 -8.94515625 2.77453125 -9.8828125 2.8515625 C-10.93082031 2.92503906 -10.93082031 2.92503906 -12 3 C-3.6319797 -1.2106599 -3.6319797 -1.2106599 0 0 Z " fill="#B16F55" transform="translate(399,130)"/>
<path d="M0 0 C0 0.66 0 1.32 0 2 C-0.639375 2.12375 -1.27875 2.2475 -1.9375 2.375 C-2.618125 2.58125 -3.29875 2.7875 -4 3 C-4.33 3.66 -4.66 4.32 -5 5 C-6.65 4.67 -8.3 4.34 -10 4 C-7.25346796 1.25346796 -3.91404908 0 0 0 Z " fill="#A7755F" transform="translate(231,184)"/>
<path d="M0 0 C4.24822374 0.47202486 6.19989709 2.96655518 9 6 C4.58763974 6 3.21615077 3.9302707 0 1 C0 0.67 0 0.34 0 0 Z " fill="#B1725B" transform="translate(406,327)"/>
<path d="M0 0 C0.66 0.33 1.32 0.66 2 1 C1.43628586 4.26954202 0.50037734 5.82575883 -2 8 C-2.66 7.67 -3.32 7.34 -4 7 C-2.68 4.69 -1.36 2.38 0 0 Z " fill="#2E3C4F" transform="translate(674,625)"/>
<path d="M0 0 C0.33 0.66 0.66 1.32 1 2 C-0.65 3.98 -2.3 5.96 -4 8 C-4.66 7.67 -5.32 7.34 -6 7 C-4.02 4.69 -2.04 2.38 0 0 Z " fill="#3A4759" transform="translate(160,623)"/>
</svg>
